<svg xmlns="http://www.w3.org/2000/svg" width="1600" height="1600" viewBox="0 0 1600 1600" version="1.1"><path d="M 1020.500 317.054 C 1002.900 317.425, 980.737 317.790, 971.250 317.864 L 954 318 954 337.941 C 954 348.909, 954.371 358.111, 954.825 358.392 C 955.278 358.672, 963.761 359.584, 973.675 360.418 C 983.589 361.253, 992.869 362.380, 994.298 362.923 C 1000.380 365.235, 1000.242 364.038, 1001.293 423.618 C 1001.821 453.572, 1002.040 478.294, 1001.778 478.555 C 1001.517 478.817, 995.947 477.811, 989.401 476.321 C 978.950 473.941, 975.429 473.613, 960.500 473.628 C 946.849 473.642, 941.493 474.076, 933.312 475.829 C 897.417 483.522, 869.839 501.877, 850.476 530.962 C 829.834 561.969, 821.196 602.643, 826.535 643.699 C 833.961 700.810, 863.196 736.198, 911.077 746.033 C 925.191 748.932, 946.868 748.472, 957.500 745.049 C 972.593 740.190, 987.196 731.155, 1001.330 717.932 L 1009.763 710.042 1011.961 724.771 C 1013.170 732.872, 1014.305 739.985, 1014.483 740.579 C 1014.696 741.291, 1018.495 741.547, 1025.653 741.334 C 1031.619 741.156, 1053.487 740.730, 1074.250 740.388 L 1112 739.767 1112 719.852 C 1112 704.838, 1111.692 699.821, 1110.750 699.466 C 1110.063 699.206, 1102.644 698.152, 1094.265 697.122 C 1078.573 695.193, 1075.151 694.018, 1072.882 689.780 C 1071.848 687.847, 1069.554 579.201, 1065.039 318.250 C 1065.002 316.140, 1064.611 316.012, 1058.750 316.189 C 1055.313 316.293, 1038.100 316.682, 1020.500 317.054 M 667 478.627 C 634.750 482.709, 610.447 493.696, 590.970 513 C 573.467 530.348, 561.782 553.253, 555.849 581.849 C 552.976 595.696, 552.220 628.111, 554.386 644.571 C 563.486 713.726, 600.918 749.975, 666 752.656 C 694.225 753.818, 723.506 749.427, 754.500 739.383 C 772.430 733.573, 790.938 726.015, 790.476 724.692 C 790.247 724.037, 787.820 715.461, 785.083 705.637 C 782.346 695.812, 779.922 687.589, 779.696 687.363 C 779.470 687.137, 772.359 688.749, 763.893 690.945 C 706.793 705.754, 675.943 707.388, 655.500 696.686 C 642.040 689.640, 631.229 674.340, 626.556 655.724 C 623.463 643.402, 622.369 632.994, 624.170 633.016 C 626.821 633.048, 785.560 618.901, 787.750 618.438 C 789.772 618.010, 790 617.370, 790 612.126 C 790 608.917, 789.549 600.488, 788.999 593.395 C 783.495 522.508, 761.922 490.461, 712.971 480.457 C 705.657 478.963, 674.232 477.711, 667 478.627 M 464 484.007 C 448.133 488.279, 431.968 498.041, 418.476 511.497 C 414.063 515.899, 409 521.715, 407.226 524.421 C 405.452 527.128, 404 529.056, 404 528.706 C 404 528.011, 399.330 496.361, 398.510 491.500 L 398.004 488.500 384.752 488.732 C 377.463 488.859, 356.762 489.249, 338.750 489.597 L 306 490.231 306.015 509.365 C 306.024 519.889, 306.369 529.032, 306.783 529.683 C 307.219 530.368, 313.848 531.584, 322.518 532.568 C 338.993 534.439, 343.076 535.751, 345.023 539.798 C 346.004 541.839, 346.633 558.399, 347.591 607.500 C 348.288 643.250, 348.891 679.130, 348.929 687.234 C 349 701.952, 348.997 701.972, 346.239 705.058 C 343.602 708.010, 342.731 708.265, 326.739 710.774 L 310 713.400 310 733.853 L 310 754.306 338.250 753.661 C 353.788 753.306, 384.950 752.772, 407.500 752.475 C 430.050 752.178, 451.650 751.697, 455.500 751.406 L 462.500 750.878 462.170 731.193 C 461.989 720.366, 461.667 711.334, 461.455 711.122 C 461.243 710.910, 452.596 709.920, 442.239 708.921 C 431.882 707.922, 422.213 706.651, 420.752 706.096 C 415.148 703.965, 415.131 703.811, 413.926 644.834 C 413.315 614.950, 413.094 588.068, 413.435 585.095 C 415.286 568.933, 430.723 546.893, 446.052 538.527 C 450.945 535.856, 452.570 535.521, 462 535.233 C 467.775 535.056, 472.988 535.270, 473.584 535.706 C 474.181 536.143, 476.154 544.038, 477.971 553.250 L 481.273 570 493.983 570 C 500.973 570, 510.739 569.713, 515.684 569.362 L 524.676 568.724 526.088 531.249 L 527.500 493.773 522 491.004 C 510.054 484.989, 500.659 482.765, 485.500 482.361 C 473.787 482.049, 470.275 482.318, 464 484.007 M 942.500 522.645 C 931.538 524.416, 919.470 529.253, 912.219 534.782 C 901.536 542.929, 894.194 578.195, 895.310 616 C 896.339 650.858, 902.613 671.455, 916.500 685.565 C 925.869 695.083, 935.642 698.930, 950.568 698.976 C 966.802 699.025, 980.571 692.470, 995.601 677.536 L 1005.703 667.500 1005.315 650 C 1005.102 640.375, 1004.549 610.997, 1004.087 584.715 C 1003.131 530.323, 1004.090 535.288, 993.536 530.093 C 983.456 525.130, 973.276 522.930, 958.500 522.520 C 951.350 522.322, 944.150 522.378, 942.500 522.645 M 661.500 528.002 C 640.847 531.108, 631.028 539.841, 625.975 559.597 C 624.188 566.586, 620.648 588.981, 621.238 589.571 C 621.386 589.720, 644.794 587.522, 673.254 584.687 L 725 579.532 725 575.354 C 725 568.353, 722.196 556.016, 719.102 549.404 C 713.682 537.822, 704.758 530.760, 692.201 528.116 C 686.365 526.887, 669.332 526.823, 661.500 528.002 M 1201.541 611.203 C 1176.813 611.688, 1156.416 612.250, 1156.215 612.452 C 1156.013 612.654, 1156.168 620.662, 1156.560 630.249 L 1157.272 647.679 1177.386 649.405 C 1188.449 650.354, 1198.896 651.565, 1200.603 652.095 C 1205.973 653.762, 1208.114 657.043, 1209.142 665.180 C 1210.293 674.285, 1217.353 1078.877, 1216.458 1084.449 C 1215.589 1089.865, 1213.525 1092.883, 1209.556 1094.541 C 1207.747 1095.297, 1198.944 1096.854, 1189.994 1098.001 C 1174.319 1100.010, 1173.114 1100.029, 1157.205 1098.516 C 1135.381 1096.442, 1132.376 1094.912, 1130.662 1085 C 1130.329 1083.075, 1129.368 1041, 1128.526 991.500 C 1127.684 942, 1126.524 897.450, 1125.949 892.500 C 1120.918 849.251, 1097.243 822.277, 1056.064 812.876 C 1043.785 810.073, 1017.734 809.301, 1004.500 811.349 C 990.279 813.549, 978.175 817.293, 965.500 823.413 C 950.582 830.616, 938.989 839.130, 923.851 854 L 911.125 866.500 910.121 859.500 C 909.569 855.650, 908.123 845.300, 906.909 836.500 C 905.695 827.700, 904.376 820.130, 903.978 819.677 C 903.580 819.225, 881.147 819.181, 854.127 819.579 L 805 820.304 805 838.152 C 805 847.968, 805.337 856.004, 805.750 856.009 C 813.592 856.097, 849.848 860.387, 851.951 861.475 C 858.297 864.756, 858.036 861.202, 860.162 973.500 C 862.172 1079.668, 862.160 1091.749, 860.042 1096.156 C 857.828 1100.759, 853.760 1101.974, 831 1104.829 L 809.500 1107.525 790 1105.793 C 765.327 1103.600, 764.521 1103.445, 760.932 1100.196 C 758.597 1098.083, 757.748 1096.203, 757.004 1091.500 C 756.482 1088.200, 755.337 1043.875, 754.458 993 C 753.244 922.681, 752.513 898.502, 751.411 892.167 C 742.768 842.500, 695.311 814.932, 622.536 817.302 C 598.155 818.096, 580.458 821.177, 555.128 829.037 C 543.500 832.645, 514.786 843.008, 513.691 843.992 C 512.977 844.633, 518.524 920.857, 519.344 921.677 C 519.522 921.855, 528.413 921.707, 539.103 921.349 L 558.539 920.699 562.777 896.154 C 565.218 882.017, 567.539 871.285, 568.251 870.845 C 570.884 869.218, 591.484 862.826, 600.755 860.760 C 608.911 858.942, 613.680 858.585, 630 858.574 C 646.886 858.561, 650.690 858.858, 658.374 860.790 C 674.733 864.903, 687.265 873.458, 693.217 884.575 C 698.137 893.763, 698.969 899.388, 699.669 928.189 L 700.318 954.882 697.909 955.441 C 696.584 955.749, 670.525 959.827, 640 964.503 C 581.267 973.501, 573.155 975.112, 559.428 980.500 C 525.065 993.991, 505.665 1019.901, 501.926 1057.300 C 499.026 1086.311, 508.093 1114.557, 525.899 1131.980 C 544.259 1149.946, 571.988 1157.979, 601.678 1153.934 C 634.910 1149.407, 664.999 1133.465, 694.756 1104.620 C 700.397 1099.152, 705.169 1094.863, 705.361 1095.089 C 705.553 1095.315, 706.973 1106.525, 708.516 1120 C 710.059 1133.475, 711.624 1144.852, 711.993 1145.282 C 712.759 1146.174, 970.584 1141.875, 972.088 1140.946 C 972.713 1140.560, 972.821 1133.954, 972.385 1122.789 L 971.700 1105.239 959.100 1104.028 C 921.167 1100.383, 919.731 1099.987, 917.216 1092.471 C 916.262 1089.621, 915.519 1065.996, 914.331 1000.754 L 912.732 912.876 917.364 906.096 C 927.228 891.660, 941 880.045, 958.500 871.401 C 975.484 863.013, 981.847 861.637, 1004 861.567 C 1024.915 861.500, 1030.019 862.447, 1042.978 868.798 C 1056.783 875.564, 1067.631 889.352, 1071.544 905.103 C 1072.880 910.481, 1073.461 929.581, 1075.191 1025 C 1076.323 1087.425, 1077.531 1138.762, 1077.875 1139.082 C 1078.336 1139.511, 1316.557 1135.557, 1318.902 1135.082 C 1319.514 1134.958, 1318.230 1100.897, 1317.590 1100.257 C 1317.283 1099.950, 1308.593 1098.398, 1298.278 1096.808 C 1279.134 1093.858, 1276.292 1092.901, 1273.354 1088.418 C 1271.053 1084.906, 1270.334 1069.242, 1269.545 1005.500 L 1268.902 953.500 1271.071 956 C 1272.264 957.375, 1300.422 992.319, 1333.645 1033.653 C 1366.869 1074.987, 1397.156 1111.735, 1400.951 1115.315 C 1418.911 1132.257, 1435.484 1139.336, 1457 1139.255 C 1470.082 1139.206, 1477.760 1137.714, 1492.648 1132.329 L 1502.796 1128.658 1505.790 1110.079 C 1507.437 1099.861, 1508.712 1091.417, 1508.624 1091.315 C 1508.536 1091.214, 1503.297 1092.033, 1496.982 1093.136 C 1488.791 1094.566, 1483.411 1094.964, 1478.212 1094.525 C 1459.729 1092.964, 1440.924 1082.222, 1421.955 1062.389 C 1410.122 1050.016, 1326 945.428, 1326 943.088 C 1326 941.957, 1328.815 938.004, 1332.282 934.269 C 1377.867 885.153, 1385.739 877.394, 1401.814 865.740 C 1410.196 859.664, 1424.649 852.479, 1432.460 850.506 C 1435.738 849.678, 1442.349 849, 1447.151 849 C 1451.953 849, 1456.113 848.625, 1456.396 848.168 C 1456.679 847.710, 1456.633 838.643, 1456.294 828.019 L 1455.678 808.702 1435.089 809.295 C 1406.643 810.114, 1398.097 812.453, 1383.059 823.532 C 1373.282 830.735, 1370.377 833.638, 1317.741 888.812 C 1290.818 917.033, 1268.667 939.983, 1268.516 939.812 C 1268.365 939.640, 1267.024 866.375, 1265.536 777 C 1264.048 687.625, 1262.635 613.487, 1262.396 612.250 C 1261.987 610.131, 1261.513 610.009, 1254.231 610.161 C 1249.979 610.249, 1226.268 610.718, 1201.541 611.203 M 200.500 629.114 C 182.900 629.452, 158.938 629.790, 147.250 629.864 L 126 630 126 647.441 C 126 657.034, 126.394 665.126, 126.876 665.423 C 127.358 665.721, 137.242 666.853, 148.841 667.939 C 176.578 670.535, 178.332 671.477, 180.013 684.686 C 180.490 688.434, 182.526 789.825, 184.537 910 C 186.548 1030.175, 188.560 1129.447, 189.009 1130.604 C 190.780 1135.175, 230.246 1149.831, 253.167 1154.429 C 274.871 1158.784, 282.446 1159.490, 306.500 1159.399 C 325.503 1159.328, 331.573 1158.936, 341.431 1157.143 C 390.879 1148.147, 427.561 1120.828, 448.916 1077.091 C 458.499 1057.463, 465.642 1030.797, 468.093 1005.500 C 469.792 987.969, 468.762 955.713, 466.001 940 C 453.633 869.611, 409.811 825.347, 349.500 822.326 C 310.075 820.351, 272.978 834.344, 245.358 861.608 L 238.114 868.759 237.599 863.629 C 237.315 860.808, 236.346 810.125, 235.444 751 C 234.542 691.875, 233.511 640.125, 233.152 636 L 232.500 628.500 200.500 629.114 M 309.061 868.024 C 284.173 871.488, 255.151 889.561, 241.224 910.270 L 238.379 914.500 239.939 1001.778 L 241.500 1089.056 248 1093.650 C 257.515 1100.374, 273.426 1107.716, 284.663 1110.567 C 320.623 1119.692, 365.142 1113.265, 384.110 1096.212 C 393.405 1087.854, 402.777 1065.035, 406.989 1040.500 C 412.758 1006.899, 412.218 966.787, 405.650 941 C 395.848 902.517, 374.214 878.110, 342.776 870.070 C 333.593 867.722, 318.023 866.777, 309.061 868.024 M 651 1001.014 C 624.875 1005.864, 600.806 1010.577, 597.513 1011.486 C 577.788 1016.935, 562.966 1031.802, 558.959 1050.156 C 556.977 1059.233, 558.107 1074.369, 561.284 1081.310 C 566.559 1092.831, 578.627 1102.160, 591.799 1104.898 C 601.271 1106.868, 614.787 1106.287, 624.415 1103.497 C 644.850 1097.575, 669.289 1081.660, 696.790 1056.366 L 702.080 1051.500 701.379 1021.750 C 700.897 1001.292, 700.338 992.031, 699.589 992.098 C 698.990 992.152, 677.125 996.164, 651 1001.014 M 1591 1392.500 C 1588.780 1394.863, 1588.760 1395, 1590.626 1395 C 1592.884 1395, 1595 1393.210, 1595 1391.300 C 1595 1389.316, 1593.595 1389.738, 1591 1392.500 M 1279 1413.821 C 1279 1414.885, 1277.987 1416.437, 1276.750 1417.269 C 1275.513 1418.101, 1274.818 1419.112, 1275.208 1419.515 C 1275.597 1419.919, 1277.319 1419.068, 1279.034 1417.624 C 1280.887 1416.065, 1283.374 1415, 1285.160 1415 C 1289.799 1415, 1288.067 1412.553, 1283.172 1412.193 C 1279.607 1411.930, 1279 1412.167, 1279 1413.821 M 1387.458 1420.067 C 1387.095 1420.656, 1387.746 1421.382, 1388.910 1421.687 C 1390.072 1421.991, 1391.290 1423.306, 1391.617 1424.609 C 1392.577 1428.436, 1402.671 1430.491, 1403.804 1427.091 C 1404.131 1426.107, 1403.762 1425.878, 1402.581 1426.331 C 1400.302 1427.205, 1395.050 1424.854, 1392.076 1421.629 C 1389.432 1418.762, 1388.467 1418.436, 1387.458 1420.067 M 1404.500 1419.837 C 1400.210 1420.813, 1401.163 1422.388, 1406.519 1423.175 C 1411.044 1423.840, 1414 1425.400, 1414 1427.122 C 1414 1427.605, 1413.100 1428, 1412 1428 C 1409.891 1428, 1409.309 1429.455, 1411 1430.500 C 1411.550 1430.840, 1412 1432.166, 1412 1433.448 C 1412 1435.317, 1412.689 1435.907, 1415.485 1436.431 C 1418.868 1437.066, 1425.099 1435.905, 1427.857 1434.125 C 1430.473 1432.437, 1426.981 1431.745, 1422.366 1433.037 C 1415.971 1434.828, 1414.721 1433.220, 1418.851 1428.517 C 1422.352 1424.529, 1422.907 1421.398, 1420.250 1420.627 C 1416.832 1419.635, 1407.455 1419.164, 1404.500 1419.837 M 1440.574 1419.674 C 1435.593 1419.980, 1433.285 1420.577, 1432.356 1421.800 C 1430.284 1424.526, 1430.742 1429.588, 1433.331 1432.599 L 1435.663 1435.309 1438.932 1432.905 C 1442.043 1430.616, 1442.875 1430.507, 1456.101 1430.651 C 1467.148 1430.771, 1470 1430.526, 1470 1429.458 C 1470 1428.718, 1470.968 1427.435, 1472.152 1426.606 C 1474.037 1425.286, 1474.560 1425.279, 1476.374 1426.550 C 1477.782 1427.535, 1481.117 1428, 1486.788 1428 C 1494.765 1428, 1499 1429.030, 1499 1430.969 C 1499 1431.463, 1497.763 1432.010, 1496.250 1432.184 C 1492.482 1432.617, 1492.769 1434.928, 1496.941 1437.739 C 1500.943 1440.436, 1504.357 1441.461, 1506.543 1440.622 C 1507.854 1440.119, 1507.701 1439.454, 1505.548 1436.285 C 1503.144 1432.748, 1503.107 1432.504, 1504.877 1431.850 C 1505.907 1431.469, 1507.233 1429.772, 1507.823 1428.079 C 1509.046 1424.569, 1509.257 1424.489, 1512.285 1426.392 C 1513.503 1427.157, 1516.696 1428.093, 1519.380 1428.472 C 1525.433 1429.327, 1528.254 1430.575, 1529.827 1433.094 C 1531.521 1435.807, 1529.063 1436.635, 1523.904 1435.089 C 1519.758 1433.847, 1518 1434.246, 1518 1436.429 C 1518 1438.191, 1525.659 1438.991, 1531.729 1437.863 C 1534.353 1437.375, 1538.636 1435.651, 1541.246 1434.032 L 1545.991 1431.088 1551.246 1433.534 C 1554.136 1434.880, 1557.900 1435.985, 1559.611 1435.990 L 1562.722 1436 1561.654 1432 C 1560.644 1428.212, 1560.383 1428, 1556.744 1428 C 1554.630 1428, 1551.487 1427.269, 1549.759 1426.375 C 1543.379 1423.076, 1541.188 1422.921, 1538.336 1425.565 C 1536.890 1426.904, 1535.555 1428, 1535.369 1428 C 1535.183 1428, 1531.231 1426.899, 1526.587 1425.553 C 1511.919 1421.303, 1499.439 1419.923, 1472.500 1419.573 C 1458.750 1419.395, 1444.383 1419.440, 1440.574 1419.674 M 1563.973 1420.733 L 1561.500 1422.465 1565 1423.145 C 1566.925 1423.520, 1569.513 1424.142, 1570.750 1424.529 C 1574.168 1425.599, 1573.870 1421.281, 1570.435 1419.975 C 1567.053 1418.690, 1566.855 1418.713, 1563.973 1420.733 M 1371 1422.810 C 1371 1423.373, 1371.515 1424.005, 1372.143 1424.214 C 1372.995 1424.498, 1372.986 1425.157, 1372.108 1426.798 C 1371.047 1428.781, 1371.167 1429, 1373.310 1429 C 1375.399 1429, 1379 1426.334, 1379 1424.788 C 1379 1424.483, 1377.987 1424.014, 1376.750 1423.745 C 1375.513 1423.477, 1373.713 1422.926, 1372.750 1422.522 C 1371.744 1422.099, 1371 1422.221, 1371 1422.810 M 1354.200 1425.200 C 1353.540 1425.860, 1353 1426.985, 1353 1427.700 C 1353 1429.807, 1355.359 1429.131, 1357.297 1426.469 C 1359.031 1424.086, 1359.029 1424, 1357.247 1424 C 1356.231 1424, 1354.860 1424.540, 1354.200 1425.200 M 1574.250 1430.347 C 1571.613 1431.212, 1571 1431.941, 1571 1434.207 C 1571 1436.534, 1571.425 1437, 1573.550 1437 C 1574.952 1437, 1577.389 1436.333, 1578.964 1435.518 C 1581.565 1434.174, 1581.722 1433.805, 1580.665 1431.526 C 1579.403 1428.807, 1579.110 1428.753, 1574.250 1430.347 M 526.818 1441.500 C 530.057 1444.226, 533 1444.778, 533 1442.661 C 533 1441.122, 528.870 1439, 525.876 1439 C 524.088 1439, 524.200 1439.297, 526.818 1441.500 M 1557 1447 C 1556.158 1448.574, 1556.240 1449, 1557.383 1449 C 1559.929 1449, 1562 1447.831, 1562 1446.393 C 1562 1444.272, 1558.214 1444.732, 1557 1447 M 807 1449.418 C 807 1450.748, 806.727 1452.548, 806.393 1453.418 C 805.888 1454.733, 806.647 1455, 810.893 1455 C 815.642 1455, 816 1454.829, 816 1452.557 C 816 1449.757, 812.665 1447, 809.277 1447 C 807.535 1447, 807 1447.568, 807 1449.418 M 1569 1456.378 C 1569 1458.590, 1571.925 1460.400, 1575.500 1460.400 C 1579.075 1460.400, 1582 1458.590, 1582 1456.378 C 1582 1455.349, 1580.354 1455, 1575.500 1455 C 1570.646 1455, 1569 1455.349, 1569 1456.378 M 1543.420 1457.129 C 1543.014 1457.787, 1544.938 1460.211, 1548.036 1462.942 C 1554.363 1468.521, 1554.162 1470.551, 1547.382 1469.535 C 1542.460 1468.797, 1541.291 1470.400, 1545.565 1472.025 C 1549.486 1473.515, 1552.476 1473.200, 1555.273 1471 C 1558.802 1468.224, 1560.857 1468.471, 1561.509 1471.750 C 1561.811 1473.263, 1562.474 1475.787, 1562.983 1477.359 L 1563.909 1480.218 1552.704 1479.563 C 1535.133 1478.535, 1534.865 1478.553, 1528.006 1481.234 L 1521.512 1483.774 1526.006 1485.050 C 1534.321 1487.413, 1534.790 1489.974, 1527.538 1493.415 C 1523.308 1495.422, 1518.344 1494.075, 1519.509 1491.236 C 1520.987 1487.637, 1520.591 1486.487, 1518 1486.849 C 1516.625 1487.042, 1511.225 1487.248, 1506 1487.309 C 1497.901 1487.403, 1495.581 1487.038, 1490.269 1484.834 C 1485.055 1482.670, 1483.853 1482.473, 1482.897 1483.624 C 1482.083 1484.605, 1479.175 1485, 1472.761 1485 L 1463.767 1485 1464.245 1482.500 C 1464.698 1480.127, 1464.488 1479.999, 1460.111 1479.987 C 1457.575 1479.980, 1449.556 1480.956, 1442.291 1482.158 C 1426.745 1484.728, 1422.127 1484.081, 1419.480 1478.962 C 1418.173 1476.433, 1417.367 1476, 1413.974 1476 C 1407.753 1476, 1409.275 1480.341, 1417.475 1485.983 C 1422.324 1489.319, 1427.584 1489.937, 1431.285 1487.604 C 1432.503 1486.836, 1434.625 1485.877, 1436 1485.471 C 1438.423 1484.757, 1438.446 1484.795, 1436.750 1486.696 C 1434.487 1489.232, 1434.538 1490.682, 1436.934 1491.965 C 1439.776 1493.486, 1443.774 1493.226, 1444.765 1491.455 C 1445.515 1490.115, 1446.475 1490.310, 1451.998 1492.921 C 1455.500 1494.578, 1463.523 1497.152, 1469.827 1498.641 C 1485.315 1502.301, 1482.318 1503.507, 1460.500 1502.395 C 1451.700 1501.947, 1438.514 1501.562, 1431.198 1501.540 C 1418.154 1501.501, 1417.939 1501.464, 1420.154 1499.673 C 1421.439 1498.633, 1423.401 1498.035, 1424.706 1498.284 C 1425.968 1498.525, 1427 1498.390, 1427 1497.984 C 1427 1496.400, 1424.274 1495.193, 1419.127 1494.501 C 1413.342 1493.723, 1412.045 1494.478, 1412.015 1498.643 C 1411.984 1503.064, 1408.980 1502.192, 1402.927 1496.006 L 1397.050 1490 1390.585 1490 C 1386.151 1490, 1381.873 1489.190, 1376.971 1487.422 C 1373.040 1486.004, 1369.597 1485.070, 1369.320 1485.346 C 1368.182 1486.485, 1370.329 1490.119, 1372.937 1491.468 C 1376.084 1493.095, 1386.501 1494.981, 1392.405 1494.992 C 1396.243 1495, 1396.279 1495.034, 1394.505 1496.994 C 1390.376 1501.557, 1381.984 1502.016, 1367 1498.500 C 1361.225 1497.145, 1354.813 1496.028, 1352.750 1496.018 C 1347.655 1495.994, 1347.908 1494.136, 1353.646 1489.434 L 1358.291 1485.627 1360.641 1488.564 C 1362.852 1491.328, 1362.990 1491.370, 1362.995 1489.282 C 1362.998 1487.894, 1364.029 1486.506, 1365.750 1485.572 C 1368.489 1484.086, 1368.479 1484.080, 1363.305 1484.040 C 1358.681 1484.004, 1357.966 1483.705, 1356.805 1481.322 C 1356.087 1479.849, 1353.475 1477.205, 1351 1475.445 C 1347.243 1472.774, 1346.252 1472.458, 1345 1473.532 C 1344.175 1474.239, 1342.375 1474.971, 1341 1475.159 C 1335.614 1475.894, 1338.823 1484, 1344.500 1484 C 1347.487 1484, 1347.670 1485.571, 1345.250 1490.434 C 1342.973 1495.010, 1339.597 1495.110, 1330.541 1490.872 C 1324.883 1488.225, 1323.476 1487.917, 1321.381 1488.872 C 1318.258 1490.295, 1318 1490.284, 1318 1488.722 C 1318 1488.019, 1318.900 1486.674, 1320 1485.732 C 1321.100 1484.790, 1322 1483.096, 1322 1481.968 C 1322 1480.023, 1321.600 1479.949, 1314.250 1480.537 C 1302.290 1481.495, 1296.309 1482.739, 1291.112 1485.350 L 1286.342 1487.746 1285.421 1484.623 C 1284.677 1482.101, 1283.106 1480.770, 1277.259 1477.706 L 1270.019 1473.912 1268.389 1477.985 C 1266.060 1483.807, 1261 1486.262, 1261 1481.571 C 1261 1478.789, 1258.616 1476, 1256.237 1476 C 1254.890 1476, 1254.941 1475.763, 1256.544 1474.591 C 1258.437 1473.208, 1258.431 1473.112, 1256.235 1469.205 C 1255.006 1467.018, 1254 1464.501, 1254 1463.614 C 1254 1462.726, 1253.362 1462, 1252.582 1462 C 1249.649 1462, 1247.883 1463.345, 1246.514 1466.621 C 1245.347 1469.413, 1244.572 1470, 1242.051 1470 C 1239.003 1470, 1239 1470.006, 1239 1475.756 C 1239 1481.257, 1238.860 1481.574, 1235.832 1482.914 C 1232.793 1484.259, 1232.569 1484.198, 1230.337 1481.408 C 1227.569 1477.949, 1227.294 1474.331, 1229.750 1473.689 C 1230.841 1473.404, 1230.477 1473.188, 1228.784 1473.116 C 1225.871 1472.992, 1219 1475.844, 1219 1477.177 C 1219 1477.620, 1219.900 1478.545, 1221 1479.232 C 1223.906 1481.047, 1223.459 1482, 1219.700 1482 C 1216.598 1482, 1214 1480.558, 1214 1478.835 C 1214 1478.414, 1215.358 1476.523, 1217.017 1474.633 L 1220.035 1471.196 1214.821 1468.598 C 1211.954 1467.169, 1208.008 1466.004, 1206.054 1466.010 C 1200.937 1466.024, 1192.911 1470.106, 1189.403 1474.479 L 1186.380 1478.247 1181.141 1477.124 C 1178.259 1476.506, 1174.384 1476, 1172.528 1476 C 1169.610 1476, 1169.010 1475.561, 1168.078 1472.750 C 1167.485 1470.963, 1165.313 1467.557, 1163.250 1465.183 L 1159.500 1460.865 1155.500 1462.558 C 1152.302 1463.912, 1149.746 1464.128, 1142.750 1463.636 C 1137.938 1463.298, 1134 1463.416, 1134 1463.897 C 1134 1465.363, 1140.138 1467.773, 1147 1469 C 1153.619 1470.184, 1160 1472.626, 1160 1473.975 C 1160 1476.299, 1134.763 1476.607, 1117 1474.500 C 1103.384 1472.885, 1087 1472.513, 1087 1473.820 C 1087 1474.270, 1088.156 1475.644, 1089.568 1476.872 C 1091.643 1478.677, 1092.012 1479.670, 1091.488 1482.052 L 1090.841 1485 1096.862 1485 C 1102.552 1485, 1105.268 1486.099, 1103.016 1487.490 C 1102.457 1487.835, 1102 1489.242, 1102 1490.615 C 1102 1492.606, 1102.895 1493.508, 1106.407 1495.062 C 1108.831 1496.134, 1113.513 1497.293, 1116.813 1497.638 C 1122.707 1498.254, 1122.838 1498.214, 1124.347 1495.295 C 1125.825 1492.437, 1126.100 1492.340, 1131.691 1492.715 C 1134.886 1492.929, 1138.625 1493.344, 1140 1493.636 L 1142.500 1494.169 1140.219 1496.020 C 1138.965 1497.037, 1135.493 1498.418, 1132.504 1499.087 C 1125.696 1500.610, 1126.362 1502.482, 1133.380 1501.548 C 1145.284 1499.963, 1147.294 1500.792, 1142.448 1505.286 C 1140.689 1506.917, 1140.172 1507.988, 1140.922 1508.452 C 1142.820 1509.625, 1150.888 1505.021, 1154.237 1500.855 L 1157.393 1496.928 1159.707 1499.885 C 1162.562 1503.533, 1169.860 1506.503, 1173.639 1505.554 C 1175.139 1505.178, 1177.720 1503.731, 1179.375 1502.338 C 1182.210 1499.952, 1182.424 1499.915, 1183.080 1501.688 C 1184.279 1504.929, 1186.651 1506.137, 1191.176 1505.811 L 1195.500 1505.500 1192.315 1502.238 C 1190.563 1500.444, 1187.751 1498.700, 1186.065 1498.363 C 1184.379 1498.026, 1183 1497.388, 1183 1496.946 C 1183 1495.970, 1185.876 1493, 1186.821 1493 C 1187.915 1493.001, 1198.695 1503.369, 1199.155 1504.862 C 1199.435 1505.771, 1203.666 1506.848, 1211.861 1508.098 C 1224.690 1510.054, 1231.242 1512.292, 1234.329 1515.771 C 1236.021 1517.678, 1236.412 1517.726, 1239.547 1516.416 C 1241.411 1515.637, 1245.763 1514.980, 1249.218 1514.956 C 1252.673 1514.932, 1257.274 1514.280, 1259.442 1513.508 C 1263.067 1512.217, 1263.490 1512.254, 1264.693 1513.973 C 1265.413 1515.001, 1267.464 1516.146, 1269.251 1516.519 C 1273.850 1517.478, 1277 1519.715, 1277 1522.023 C 1277 1523.699, 1276.316 1524, 1272.500 1524 C 1269.568 1524, 1268 1524.435, 1268 1525.250 C 1268 1525.937, 1266.206 1524.536, 1264.013 1522.138 C 1261.055 1518.901, 1259.571 1517.963, 1258.263 1518.501 C 1257.293 1518.900, 1255.713 1519.453, 1254.750 1519.730 C 1251.638 1520.625, 1252.864 1521.984, 1259.750 1525.275 C 1265.423 1527.985, 1266.500 1528.899, 1266.500 1531 C 1266.500 1533.073, 1266.073 1533.453, 1264 1533.226 C 1259.436 1532.725, 1252.523 1528.663, 1252.185 1526.283 C 1251.784 1523.468, 1246.870 1522.387, 1241.389 1523.909 C 1237.064 1525.110, 1230 1525.370, 1230 1524.329 C 1230 1523.960, 1230.754 1522.824, 1231.676 1521.805 C 1232.897 1520.456, 1233.053 1519.653, 1232.251 1518.851 C 1230.429 1517.029, 1224.573 1518.782, 1219.472 1522.677 L 1214.719 1526.306 1209.610 1525.026 C 1201.466 1522.986, 1200.818 1522.065, 1207.500 1522.025 C 1213.175 1521.991, 1221 1520.480, 1221 1519.418 C 1221 1519.149, 1220.273 1517.820, 1219.385 1516.465 C 1217.429 1513.479, 1214.678 1513.322, 1211.273 1516 C 1207.783 1518.745, 1205.667 1518.513, 1202.154 1515 C 1200.261 1513.107, 1198.129 1512, 1196.377 1512 C 1193.086 1512, 1194.263 1513.627, 1198 1514.243 C 1200.370 1514.635, 1200.307 1514.743, 1196.782 1516.328 C 1191.590 1518.663, 1189.045 1518.543, 1189.712 1515.995 C 1190.301 1513.742, 1188.470 1511, 1186.378 1511 C 1184.225 1511, 1184.755 1513.920, 1187.500 1517.182 C 1190.637 1520.911, 1190.727 1522.399, 1187.750 1521.317 C 1186.513 1520.868, 1182.350 1520.606, 1178.500 1520.735 C 1173.274 1520.911, 1171.946 1520.707, 1173.260 1519.930 C 1174.227 1519.358, 1175.667 1517.340, 1176.459 1515.445 C 1177.250 1513.550, 1178.426 1512, 1179.071 1512 C 1179.940 1512, 1179.923 1511.612, 1179.006 1510.507 C 1178.105 1509.422, 1176.698 1509.185, 1173.858 1509.639 C 1170.967 1510.101, 1169.474 1509.834, 1168.128 1508.616 C 1166.489 1507.133, 1165.966 1507.115, 1162.903 1508.445 L 1159.500 1509.922 1163.276 1509.961 L 1167.051 1510 1165.531 1512.939 C 1163.496 1516.876, 1160.253 1519, 1156.277 1519 C 1153.707 1519, 1153 1519.416, 1153 1520.929 C 1153 1523.140, 1155.516 1526, 1157.461 1526 C 1158.185 1526, 1159.841 1526.867, 1161.139 1527.926 C 1163.499 1529.851, 1163.494 1529.852, 1154 1529.307 C 1143.114 1528.682, 1137.549 1529.825, 1133.048 1533.613 C 1130.456 1535.794, 1129.914 1535.938, 1129.394 1534.585 C 1127.445 1529.505, 1134.406 1524, 1142.781 1524 C 1146.074 1524, 1147.168 1523.536, 1148.087 1521.750 C 1150.675 1516.720, 1154.238 1514.005, 1158.437 1513.864 C 1160.733 1513.787, 1161.521 1513.539, 1160.250 1513.294 C 1159.013 1513.056, 1158 1512.226, 1158 1511.450 C 1158 1510.377, 1156.979 1510.158, 1153.750 1510.539 C 1151.412 1510.814, 1145.790 1511.467, 1141.256 1511.991 C 1132.386 1513.015, 1127.998 1514.737, 1125.623 1518.128 C 1124.236 1520.107, 1124.002 1520.145, 1122.491 1518.634 C 1120.719 1516.862, 1116.871 1516.628, 1110.328 1517.895 C 1106.710 1518.596, 1106.091 1518.455, 1105.668 1516.838 C 1105.189 1515.008, 1101.198 1512.906, 1095.750 1511.614 C 1093.353 1511.046, 1093 1511.260, 1093 1513.281 C 1093 1516.088, 1094.736 1518, 1097.283 1518 C 1099.905 1518, 1098.867 1520.423, 1096.070 1520.833 C 1094.820 1521.016, 1092.711 1520.893, 1091.385 1520.560 C 1089.391 1520.060, 1089.083 1519.519, 1089.605 1517.438 L 1090.237 1514.920 1083.868 1515.569 C 1078.213 1516.146, 1072.862 1515.419, 1067.437 1513.338 C 1066.566 1513.003, 1066 1513.401, 1066 1514.348 C 1066 1515.365, 1067.306 1516.145, 1069.750 1516.586 C 1075.348 1517.596, 1075.558 1518.058, 1071.345 1520.089 C 1069.230 1521.108, 1066.364 1522.867, 1064.977 1523.997 C 1063.589 1525.127, 1060.724 1526.333, 1058.612 1526.676 C 1055.118 1527.243, 1054.827 1527.121, 1055.396 1525.328 C 1055.915 1523.693, 1055.382 1523.200, 1052.261 1522.429 C 1047.634 1521.286, 1047.162 1518.646, 1051.500 1518.173 C 1055.833 1517.701, 1056.582 1516.428, 1053.656 1514.510 C 1050.408 1512.382, 1047.467 1513.254, 1043.501 1517.521 C 1040.615 1520.626, 1040.292 1520.722, 1035.104 1520.035 C 1031.636 1519.576, 1029.227 1518.663, 1028.361 1517.480 C 1027.063 1515.704, 1026.848 1515.721, 1022.382 1517.952 C 1017.243 1520.518, 1000 1522.266, 1000 1520.220 C 1000 1517.529, 1001.576 1515.753, 1005.281 1514.271 L 1009.301 1512.662 1007.040 1510.831 C 1003.767 1508.181, 996.575 1508.341, 994.637 1511.108 C 993.098 1513.306, 991 1512.926, 991 1510.449 C 991 1509.662, 990.100 1508.455, 989 1507.768 C 986.363 1506.121, 986.465 1504.165, 989.250 1502.970 C 990.947 1502.242, 989.902 1502.065, 985 1502.252 C 979.289 1502.470, 978.536 1502.288, 978.794 1500.750 C 979.149 1498.634, 977.799 1498.532, 974.200 1500.405 C 970.432 1502.366, 966.925 1506.342, 966.735 1508.870 C 966.597 1510.703, 965.941 1511.003, 962.037 1511.024 C 959.542 1511.037, 955.700 1511.447, 953.500 1511.935 C 950.302 1512.645, 949.884 1512.590, 951.412 1511.662 C 955.254 1509.328, 957 1506.934, 957 1504 C 957 1500.607, 956.854 1500.558, 951.903 1502.284 C 948.864 1503.342, 948.472 1503.802, 949.380 1505.241 C 951.115 1507.991, 949.200 1508.876, 937.954 1510.519 C 927.389 1512.063, 922 1513.587, 922 1515.032 C 922 1515.467, 923.322 1516.934, 924.937 1518.293 L 927.874 1520.765 923.861 1521.406 C 920.116 1522.005, 917.067 1523.406, 903 1530.991 C 898.617 1533.354, 896.243 1533.961, 891.309 1533.978 C 884.517 1534.002, 882.894 1532.879, 885.523 1529.974 C 887.380 1527.923, 886.903 1525, 884.712 1525 C 883.969 1525, 882.382 1526.125, 881.187 1527.500 C 879.991 1528.875, 878.448 1530.045, 877.757 1530.100 C 877.065 1530.155, 877.625 1530.512, 878.999 1530.895 C 881.477 1531.584, 881.465 1531.612, 877.517 1534.295 C 875.327 1535.783, 872.159 1537, 870.476 1537 C 867.761 1537, 867.113 1536.380, 864.719 1531.500 L 862.022 1526 854.594 1526 C 849.910 1526, 847.026 1526.422, 846.786 1527.143 C 845.956 1529.633, 842.039 1525.824, 838.924 1519.498 L 835.725 1513 826.863 1513 C 816.987 1513, 816.717 1512.757, 819.679 1506.546 C 821.945 1501.795, 820.670 1500.981, 816.735 1504.667 C 811.815 1509.276, 808.832 1511, 805.777 1511 C 803.387 1511, 803 1511.399, 803 1513.865 C 803 1515.441, 802.017 1517.980, 800.816 1519.507 L 798.632 1522.283 800.773 1524.018 C 803.222 1526, 802.723 1527, 799.284 1527 C 796.101 1527, 791.304 1524.437, 790.030 1522.055 C 788.518 1519.230, 788.683 1519.001, 792.250 1518.986 C 798.224 1518.961, 800 1518.026, 800 1514.906 C 800 1511.252, 797.294 1509.479, 789.582 1508.080 C 783.377 1506.954, 780 1504.822, 780 1502.031 C 780 1500.617, 779.079 1500.436, 773.750 1500.805 C 766.428 1501.311, 765.222 1502.054, 764.808 1506.316 C 764.463 1509.867, 762.772 1510.624, 758.671 1509.065 C 756.225 1508.135, 756 1507.588, 756 1502.574 C 756 1498.561, 755.566 1496.857, 754.376 1496.190 C 752.967 1495.402, 753.106 1495.030, 755.422 1493.391 C 763.509 1487.667, 763.811 1486.600, 757.340 1486.600 C 749.911 1486.600, 745.083 1497.390, 749.616 1503.862 C 751.844 1507.042, 750.042 1508.844, 746.862 1506.616 C 743.784 1504.460, 742.292 1504.560, 744.307 1506.787 C 745.660 1508.281, 745.744 1513, 744.418 1513 C 744.226 1513, 741.973 1511.670, 739.410 1510.045 C 733.312 1506.178, 727.895 1505.248, 708 1504.655 C 693.057 1504.209, 691.287 1504.336, 689.248 1505.994 C 687.864 1507.118, 687.230 1508.437, 687.605 1509.412 C 688.460 1511.640, 691.720 1511.391, 693 1509 C 693.701 1507.690, 695.094 1507, 697.035 1507 C 699.507 1507, 700 1507.403, 700 1509.427 C 700 1510.875, 698.908 1512.714, 697.294 1513.983 C 694.873 1515.887, 694.728 1516.335, 695.913 1518.232 C 697.062 1520.072, 696.990 1520.536, 695.369 1521.735 C 693.418 1523.177, 692.563 1523.111, 684.732 1520.913 C 681.041 1519.878, 679.277 1519.834, 676.925 1520.722 C 674.448 1521.657, 673.785 1521.604, 673.336 1520.434 C 673.034 1519.646, 673.045 1518.325, 673.362 1517.500 C 673.765 1516.449, 673.273 1515.990, 671.719 1515.967 L 669.500 1515.933 671.861 1513.967 C 673.159 1512.885, 675.072 1512, 676.111 1512 C 677.150 1512, 678 1511.550, 678 1511 C 678 1510.450, 677.307 1510, 676.460 1510 C 674.504 1510, 667.353 1513.620, 666.462 1515.061 C 666.025 1515.768, 664.937 1515.350, 663.362 1513.871 C 660.135 1510.839, 651.291 1510.281, 640.140 1512.407 C 629.085 1514.513, 626.754 1514.485, 627.212 1512.250 C 627.467 1511.007, 628.357 1510.583, 630.286 1510.788 C 633.878 1511.169, 633.787 1509.332, 630.174 1508.538 C 626.502 1507.732, 623.434 1508.960, 618.205 1513.328 C 613.826 1516.987, 610.313 1518.646, 609.233 1517.566 C 608.894 1517.227, 609.153 1515.467, 609.808 1513.654 C 612.165 1507.137, 611.213 1506, 603.404 1506 C 598.673 1506, 598.895 1505.791, 593.656 1515.183 L 591.812 1518.489 590.374 1515.745 C 588.732 1512.610, 587.002 1512.383, 580.970 1514.511 C 578.615 1515.342, 576.613 1515.904, 576.521 1515.761 C 576.430 1515.617, 575.553 1513.338, 574.574 1510.696 C 572.626 1505.440, 568.756 1502.223, 561.177 1499.557 C 551.546 1496.170, 523.274 1492.646, 525.750 1495.140 C 529.334 1498.752, 525.866 1503.317, 514.516 1509.931 C 506.457 1514.626, 505.385 1514.820, 504.449 1511.750 C 503.498 1508.630, 501.012 1506, 499.012 1506 C 498.090 1506, 495.858 1507.838, 494.052 1510.085 C 490.088 1515.018, 485.465 1517.991, 481.750 1517.996 C 479.473 1517.999, 479 1517.565, 479 1515.466 C 479 1513.631, 478.036 1512.364, 475.500 1510.867 C 473.223 1509.524, 472.001 1508.051, 472.001 1506.651 C 472.003 1504.550, 471.753 1504.512, 461.251 1505.030 C 452.241 1505.475, 449.824 1505.957, 446.327 1508.008 L 442.155 1510.455 438.191 1508.228 C 435.878 1506.927, 432.515 1506, 430.114 1506 C 427.851 1506, 426 1505.550, 426 1505 C 426 1504.421, 429.207 1504, 433.622 1504 C 440.133 1504, 441.071 1503.791, 440.053 1502.564 C 437.448 1499.425, 425.704 1499.439, 422.557 1502.585 C 421.293 1503.850, 419.811 1503.876, 411.795 1502.776 C 401.602 1501.377, 329.508 1501.012, 320.338 1502.313 C 315.572 1502.989, 315.214 1502.899, 315.675 1501.136 C 315.949 1500.085, 315.729 1498.951, 315.185 1498.615 C 314.284 1498.058, 287.085 1500.958, 286.060 1501.720 C 285.102 1502.432, 288.709 1504.972, 292.423 1506.201 C 296.631 1507.594, 297.483 1508.685, 296.085 1510.894 C 295.356 1512.047, 294.590 1511.909, 291.658 1510.098 C 289.638 1508.849, 286.906 1508.034, 285.306 1508.203 C 282.832 1508.465, 282.505 1508.175, 282.539 1505.750 C 282.571 1503.539, 282.130 1503, 280.289 1503 C 277.721 1503, 277.196 1504.754, 279.500 1505.638 C 282.054 1506.619, 281.154 1508, 277.961 1508 C 276.144 1508, 272.831 1506.592, 269.724 1504.500 C 266.601 1502.397, 263.307 1501, 261.470 1501 C 258.887 1501, 258.265 1501.502, 257.457 1504.239 C 256.230 1508.394, 251.837 1510.266, 249.291 1507.719 C 247.720 1506.149, 247.754 1505.891, 249.815 1503.696 C 252.397 1500.949, 251.830 1500.006, 247.583 1499.985 C 243.968 1499.967, 242.371 1499.108, 241.866 1496.908 C 241.543 1495.506, 240.798 1495.458, 235.596 1496.508 C 232.017 1497.231, 229.139 1498.448, 228.285 1499.600 C 226.771 1501.642, 226.470 1501.445, 223.455 1496.438 C 222.474 1494.809, 222.109 1494.803, 217.455 1496.342 C 209.016 1499.134, 204.108 1499.249, 185.432 1497.089 C 161.030 1494.268, 159.536 1494.310, 155.923 1497.923 C 154.315 1499.531, 153 1501.728, 153 1502.806 C 153 1505.288, 150.501 1505.969, 141.332 1505.986 C 132.667 1506.003, 130.448 1505.370, 132.117 1503.359 C 134.319 1500.706, 131.892 1500.570, 123.128 1502.857 C 118.303 1504.116, 112.138 1505.225, 109.428 1505.323 C 104.270 1505.508, 104.363 1505.628, 105.765 1500.649 C 106.746 1497.163, 102.600 1499.322, 100.744 1503.263 C 99.418 1506.079, 98.382 1507, 96.542 1507 C 95.198 1507, 93.716 1506.314, 93.246 1505.476 C 92.487 1504.119, 91.666 1504.143, 85.752 1505.694 C 77.745 1507.794, 71.122 1506.792, 61.377 1502.007 C 55.881 1499.308, 54.295 1499.002, 45.877 1499.016 C 40.720 1499.025, 28.850 1499.924, 19.500 1501.015 C 10.150 1502.105, 1.938 1502.998, 1.250 1502.998 C 0.267 1503, 0 1513.368, 0 1551.501 L 0 1600.001 800.250 1599.751 L 1600.500 1599.500 1600.814 1563.500 C 1601.242 1514.511, 1600.215 1477, 1598.446 1477 C 1596.237 1477, 1595.793 1478.866, 1597.442 1481.221 C 1598.299 1482.444, 1599 1483.795, 1599 1484.223 C 1599 1485.786, 1594.197 1484.943, 1591.638 1482.930 C 1588.742 1480.652, 1584.500 1480.666, 1584.500 1482.955 C 1584.500 1483.755, 1585.623 1484.675, 1586.995 1484.999 C 1590.164 1485.747, 1591.029 1489, 1588.058 1489 C 1585.244 1489, 1578 1491.308, 1578 1492.205 C 1578 1492.599, 1578.923 1493.782, 1580.051 1494.833 C 1581.508 1496.191, 1581.924 1497.454, 1581.487 1499.196 C 1580.767 1502.064, 1581.944 1503.238, 1587.250 1504.947 C 1591.124 1506.195, 1592.317 1508, 1589.268 1508 C 1588.315 1508, 1582.552 1507, 1576.460 1505.778 L 1565.384 1503.555 1569.192 1499.932 C 1573.680 1495.663, 1574.371 1491.073, 1570.892 1488.637 C 1568.250 1486.787, 1569.077 1485.344, 1573.261 1484.502 C 1581.203 1482.904, 1581.662 1481.998, 1577.169 1476.785 C 1575.612 1474.978, 1574.070 1472.764, 1573.744 1471.864 C 1573.272 1470.564, 1572.213 1470.334, 1568.575 1470.744 C 1564.878 1471.161, 1564 1470.961, 1564 1469.701 C 1564 1467.658, 1566.700 1465.008, 1568.821 1464.970 C 1572.427 1464.904, 1567.024 1462.908, 1559.254 1461.435 C 1554.989 1460.627, 1550.281 1459.073, 1548.790 1457.983 C 1545.701 1455.722, 1544.416 1455.518, 1543.420 1457.129 M 945.435 1459.596 C 946.274 1462.940, 944.537 1465, 940.878 1465 C 936.917 1465, 937.274 1466.491, 941.982 1469.607 C 946.319 1472.477, 956.612 1474.420, 954.250 1471.922 C 951.918 1469.455, 952.987 1468.855, 958.750 1469.394 C 964.412 1469.924, 964.434 1469.916, 960.159 1468.889 C 956.868 1468.099, 955.418 1467.095, 954.159 1464.736 C 950.425 1457.737, 944.021 1453.964, 945.435 1459.596 M 1071.473 1458.916 C 1071.808 1459.970, 1071.613 1461.121, 1071.041 1461.475 C 1068.947 1462.769, 1070.086 1464, 1073.378 1464 C 1078.458 1464, 1079.637 1461.847, 1076.020 1459.173 C 1072.373 1456.477, 1070.669 1456.380, 1071.473 1458.916 M 1033.431 1461.218 C 1032.651 1463.674, 1028.138 1465.561, 1020.991 1466.421 C 1014.041 1467.257, 1012.318 1468.189, 1014.453 1469.961 C 1015.304 1470.667, 1016 1471.842, 1016 1472.572 C 1016 1473.602, 1018.332 1473.854, 1026.443 1473.699 L 1036.886 1473.500 1038.362 1469.750 C 1039.537 1466.767, 1040.367 1466, 1042.420 1466 C 1047.386 1466, 1045.073 1463.049, 1038.269 1460.705 C 1034.286 1459.333, 1034.020 1459.361, 1033.431 1461.218 M 1522.604 1461.589 C 1521.582 1464.252, 1524.774 1465.791, 1528.418 1464.393 C 1530.291 1463.674, 1530.551 1461.006, 1528.750 1460.986 C 1528.063 1460.979, 1526.550 1460.718, 1525.388 1460.406 C 1523.942 1460.018, 1523.064 1460.391, 1522.604 1461.589 M 893.365 1466.563 C 889.039 1469.573, 885.545 1472.479, 885.600 1473.018 C 885.655 1473.558, 885.768 1475.115, 885.850 1476.479 C 885.987 1478.737, 886.218 1478.858, 888.462 1477.835 C 889.816 1477.219, 892.065 1474.989, 893.460 1472.881 C 897.209 1467.216, 900.215 1465.531, 904.132 1466.896 C 908.258 1468.334, 908.191 1468.354, 907.820 1465.818 C 907.622 1464.472, 906.300 1463.149, 904.365 1462.362 C 901.354 1461.138, 900.920 1461.304, 893.365 1466.563 M 1535 1465 C 1535 1466.619, 1535.667 1467, 1538.500 1467 C 1542.164 1467, 1542.812 1466.212, 1540.800 1464.200 C 1538.788 1462.188, 1535 1462.710, 1535 1465 M 988.943 1465.056 C 988.150 1465.558, 985.573 1465.976, 983.218 1465.985 C 978.433 1466.002, 972 1468.307, 972 1470.004 C 972 1471.440, 980.913 1475.494, 988.264 1477.402 C 991.435 1478.225, 997.847 1479.208, 1002.514 1479.587 C 1010.006 1480.194, 1011 1480.082, 1011 1478.628 C 1011 1476.021, 1007.577 1473.697, 999.769 1471 C 994.906 1469.320, 992.179 1467.785, 991.459 1466.321 C 990.685 1464.748, 989.986 1464.397, 988.943 1465.056 M 1594 1471.173 C 1594 1472.178, 1594.638 1473, 1595.418 1473 C 1596.198 1473, 1597.548 1473.273, 1598.418 1473.607 C 1599.535 1474.035, 1600 1473.627, 1600 1472.220 C 1600 1470.770, 1599.183 1470.107, 1597 1469.787 C 1594.601 1469.435, 1594 1469.712, 1594 1471.173 M 1049.500 1471.843 C 1047.175 1472.410, 1046.554 1473.072, 1046.738 1474.787 C 1046.967 1476.915, 1046.620 1477.008, 1037.738 1477.220 C 1032.657 1477.341, 1026.784 1477.412, 1024.687 1477.379 C 1021.007 1477.320, 1020.937 1477.381, 1022.687 1479.124 C 1023.684 1480.117, 1027.664 1481.960, 1031.530 1483.218 L 1038.560 1485.506 1040.739 1483.003 L 1042.918 1480.500 1045.209 1483.164 C 1049.198 1487.804, 1053.668 1489.417, 1062.500 1489.406 C 1071.414 1489.394, 1078.932 1486.830, 1083.118 1482.374 C 1086.350 1478.934, 1084.856 1477.012, 1076.837 1474.298 C 1069.892 1471.948, 1054.675 1470.581, 1049.500 1471.843 M 1300.250 1472.031 C 1295.446 1473.962, 1297.931 1475.111, 1306.250 1474.804 C 1314.015 1474.518, 1314.483 1474.618, 1314.208 1476.500 C 1314.026 1477.752, 1314.217 1478.062, 1314.718 1477.329 C 1315.159 1476.685, 1316.786 1475.841, 1318.333 1475.452 C 1322.024 1474.526, 1320.717 1473.468, 1314.201 1472.107 C 1307.961 1470.804, 1303.366 1470.779, 1300.250 1472.031 M 1393.143 1474.890 C 1390.995 1476.252, 1392.705 1479.632, 1396.438 1481.404 C 1402.755 1484.401, 1404.535 1483.353, 1402.789 1477.665 C 1401.766 1474.332, 1401.340 1474.001, 1398.082 1474.015 C 1396.112 1474.024, 1393.889 1474.418, 1393.143 1474.890 M 1517.667 1475.667 C 1515.886 1477.447, 1517.206 1479, 1520.500 1479 C 1524.353 1479, 1525.070 1477.643, 1522.066 1476.035 C 1519.822 1474.834, 1518.601 1474.732, 1517.667 1475.667 M 1511 1481.300 C 1511 1484.670, 1515.772 1486.184, 1517.986 1483.517 C 1519.008 1482.286, 1518.762 1481.860, 1516.544 1481.017 C 1512.923 1479.640, 1511 1479.738, 1511 1481.300 M 538.500 1483 C 538.160 1483.550, 538.359 1484, 538.941 1484 C 540.926 1484, 540.007 1486.766, 537.468 1488.429 C 536.076 1489.341, 535.202 1490.518, 535.527 1491.044 C 536.397 1492.451, 542.335 1492.207, 544.426 1490.678 C 546.140 1489.425, 546.097 1489.208, 543.617 1486.532 C 542.178 1484.979, 541 1483.324, 541 1482.854 C 541 1481.677, 539.255 1481.779, 538.500 1483 M 1270.694 1482.639 C 1269.484 1483.850, 1271.124 1485, 1274.059 1485 C 1275.975 1485, 1277 1485.510, 1277 1486.465 C 1277 1487.745, 1279.829 1490, 1281.434 1490 C 1282.814 1490, 1281.813 1485.813, 1280 1484 C 1278.081 1482.081, 1272.123 1481.210, 1270.694 1482.639 M 1379 1482.635 C 1379 1483.612, 1383.976 1488, 1385.083 1488 C 1387.055 1488, 1387.330 1484.715, 1385.471 1483.355 C 1383.592 1481.981, 1379 1481.470, 1379 1482.635 M 1548.048 1485.449 C 1545.905 1487.730, 1545.755 1491, 1547.794 1491 C 1549.528 1491, 1553.243 1486.075, 1552.658 1484.551 C 1551.829 1482.391, 1550.717 1482.608, 1548.048 1485.449 M 124.998 1489.996 C 126.371 1492.561, 126.554 1492.322, 121.500 1494.567 C 117.879 1496.176, 117.727 1496.383, 119.893 1496.760 C 125.038 1497.655, 130.755 1489.154, 125.667 1488.174 C 124.074 1487.868, 123.987 1488.106, 124.998 1489.996 M 550.232 1490 C 549.112 1491.794, 549.233 1492, 551.410 1492 C 555.481 1492, 557.230 1490.982, 555.903 1489.383 C 554.256 1487.399, 551.682 1487.679, 550.232 1490 M 736.250 1490.175 C 732.105 1492.738, 731.987 1495, 736 1495 C 738.303 1495, 739 1494.549, 739 1493.059 C 739 1491.991, 739.450 1490.840, 740 1490.500 C 741.164 1489.781, 741.352 1487.961, 740.250 1488.083 C 739.837 1488.128, 738.038 1489.070, 736.250 1490.175 M 1146 1488.949 C 1146 1489.599, 1146.466 1491.002, 1147.035 1492.066 C 1148.377 1494.572, 1154.599 1494.677, 1158.027 1492.250 L 1160.500 1490.500 1156 1489.822 C 1153.525 1489.450, 1150.263 1488.835, 1148.750 1488.456 C 1146.912 1487.995, 1146 1488.159, 1146 1488.949 M 1104.422 1490.343 C 1104.092 1491.202, 1104.114 1492.376, 1104.470 1492.952 C 1105.447 1494.533, 1110.582 1494.209, 1112.020 1492.476 C 1113.605 1490.566, 1113.359 1490.339, 1108.761 1489.480 C 1105.847 1488.936, 1104.889 1489.126, 1104.422 1490.343 M 1563.112 1490.265 C 1561.799 1490.944, 1560.771 1491.725, 1560.827 1492 C 1561.461 1495.089, 1563.440 1499.020, 1564.228 1498.757 C 1564.779 1498.574, 1566.034 1496.303, 1567.018 1493.712 C 1568.661 1489.384, 1568.672 1489.001, 1567.153 1489.015 C 1566.244 1489.023, 1564.425 1489.585, 1563.112 1490.265 M 779.079 1492.265 C 775.009 1494.341, 775.349 1496, 779.845 1496 C 783.632 1496, 787 1494.084, 787 1491.929 C 787 1490.596, 781.928 1490.811, 779.079 1492.265 M 1535.651 1491.755 C 1535.395 1492.170, 1535.989 1493.503, 1536.972 1494.718 C 1538.546 1496.660, 1539.073 1496.780, 1541.372 1495.713 C 1542.809 1495.046, 1543.988 1494.178, 1543.992 1493.785 C 1544.014 1491.825, 1536.707 1490.047, 1535.651 1491.755 M 1549.098 1494.149 C 1547.243 1499.469, 1547.695 1500.975, 1551.642 1502.624 C 1555.313 1504.158, 1560 1503.797, 1560 1501.981 C 1560 1501.441, 1558.884 1501, 1557.519 1501 C 1555.622 1501, 1554.900 1500.353, 1554.450 1498.250 C 1553.555 1494.065, 1552.147 1491, 1551.119 1491 C 1550.611 1491, 1549.702 1492.417, 1549.098 1494.149 M 569 1493.300 C 569 1496.484, 573.467 1498.133, 575.793 1495.807 C 576.717 1494.883, 576.286 1494.319, 573.878 1493.307 C 569.974 1491.665, 569 1491.664, 569 1493.300 M 597.446 1493.087 C 596.609 1494.442, 597.593 1495.321, 601.806 1496.984 C 604.399 1498.008, 605.369 1498.027, 606.306 1497.073 C 607.235 1496.128, 606.975 1495.429, 605.139 1493.929 C 602.554 1491.816, 598.505 1491.373, 597.446 1493.087 M 133.188 1494.739 C 133.561 1496.675, 136.225 1497.516, 138.808 1496.512 C 140.258 1495.949, 140.142 1495.656, 138 1494.463 C 134.580 1492.559, 132.788 1492.661, 133.188 1494.739 M 1082.022 1494.474 C 1080.240 1496.621, 1074.851 1497.342, 1069.326 1496.173 L 1064.500 1495.152 1067 1497.201 C 1069.237 1499.034, 1070.398 1499.186, 1078.025 1498.652 C 1084.448 1498.201, 1087.236 1498.410, 1089.333 1499.498 C 1092.016 1500.890, 1092.092 1500.862, 1091.440 1498.721 C 1089.856 1493.522, 1084.731 1491.210, 1082.022 1494.474 M 482 1494.941 C 482 1495.459, 482.450 1496.160, 483 1496.500 C 484.756 1497.585, 484.090 1498.749, 480.500 1500.867 C 477.964 1502.364, 477 1503.631, 477 1505.466 C 477 1508.406, 477.526 1508.514, 482.251 1506.540 C 484.173 1505.736, 486.028 1505.361, 486.373 1505.706 C 486.718 1506.051, 487 1504.831, 487 1502.995 C 487 1501.160, 487.734 1498.846, 488.632 1497.854 C 490.160 1496.166, 490.092 1495.985, 487.567 1495.025 C 484.202 1493.746, 482 1493.713, 482 1494.941 M 373.244 1496.250 C 373.724 1497.713, 380 1498.577, 380 1497.180 C 380 1496.245, 376.756 1495.040, 374.167 1495.014 C 373.433 1495.006, 373.018 1495.563, 373.244 1496.250 M 684 1498 C 681.115 1500.885, 681.434 1503.005, 684.750 1502.978 C 687.480 1502.956, 690.364 1501.109, 692.916 1497.750 C 694.130 1496.151, 693.888 1496, 690.122 1496 C 687.333 1496, 685.353 1496.647, 684 1498 M 1485.554 1498.337 C 1484.548 1499.073, 1483.899 1500.150, 1484.112 1500.730 C 1484.622 1502.118, 1491.190 1499.988, 1491.758 1498.250 C 1492.310 1496.561, 1487.897 1496.624, 1485.554 1498.337 M 587.713 1498.621 C 586.039 1500.294, 587.263 1501.998, 590.925 1503.096 C 595.837 1504.567, 598.245 1503.750, 597.820 1500.754 C 597.549 1498.847, 596.801 1498.454, 592.963 1498.204 C 590.467 1498.041, 588.105 1498.229, 587.713 1498.621 M 1512.493 1500.011 C 1510.556 1503.146, 1517.972 1507.457, 1520.666 1504.762 C 1521.805 1503.624, 1521.309 1503.063, 1517.549 1501.236 C 1514.988 1499.992, 1512.828 1499.469, 1512.493 1500.011 M 1540.174 1501.314 C 1537.287 1504.388, 1537.322 1506.336, 1540.250 1505.466 C 1543.095 1504.621, 1545.024 1502.225, 1544.324 1500.403 C 1543.574 1498.446, 1542.685 1498.642, 1540.174 1501.314 M 579.250 1501.496 C 577.529 1503.451, 577.684 1505.040, 579.750 1506.608 C 582.421 1508.636, 584.523 1508.259, 586.006 1505.488 C 587.198 1503.261, 587.133 1502.812, 585.425 1501.520 C 582.997 1499.683, 580.853 1499.675, 579.250 1501.496 M 510.233 1503.964 C 507.667 1505.223, 507.227 1505.827, 508.183 1506.783 C 510.312 1508.912, 512.731 1508.186, 513.295 1505.250 C 513.586 1503.737, 513.751 1502.469, 513.662 1502.431 C 513.573 1502.393, 512.030 1503.083, 510.233 1503.964 M 641.060 1503.752 C 634.494 1507.088, 635.920 1508.001, 647.667 1507.985 C 653.625 1507.976, 659.175 1507.533, 660 1507 C 661.213 1506.216, 661.069 1506.028, 659.250 1506.015 C 658.013 1506.007, 656.100 1505.100, 655 1504 C 652.456 1501.456, 645.811 1501.337, 641.060 1503.752 M 0.463 1551.500 C 0.463 1578.450, 0.592 1589.331, 0.749 1575.681 C 0.907 1562.030, 0.906 1539.980, 0.749 1526.681 C 0.592 1513.381, 0.463 1524.550, 0.463 1551.500 M 533 1507.200 C 533 1509.689, 533.267 1510.133, 534.200 1509.200 C 535.707 1507.693, 540.044 1507.674, 547.357 1509.143 C 550.487 1509.771, 553.199 1510.109, 553.383 1509.893 C 553.568 1509.677, 554.016 1508.263, 554.378 1506.750 L 555.038 1504 544.019 1504 L 533 1504 533 1507.200 M 335.452 1507.406 C 332.490 1508.696, 328.326 1513.659, 329.349 1514.682 C 329.628 1514.962, 331.234 1514.888, 332.916 1514.518 C 336.036 1513.833, 340 1509.830, 340 1507.365 C 340 1505.698, 339.359 1505.704, 335.452 1507.406 M 564.667 1507.667 C 563.412 1508.921, 563.998 1513.785, 565.471 1514.351 C 566.762 1514.846, 570 1512.709, 570 1511.363 C 570 1508.532, 566.339 1505.995, 564.667 1507.667 M 875.283 1510.515 C 874.201 1511.272, 871.108 1512.431, 868.408 1513.090 C 862.510 1514.530, 860.216 1515.598, 857.281 1518.270 C 852.304 1522.801, 859.356 1523.428, 866.234 1519.066 C 871.363 1515.814, 877.387 1513.827, 879.575 1514.667 C 881.740 1515.498, 881.347 1511.698, 879.124 1510.310 C 877.659 1509.394, 876.818 1509.439, 875.283 1510.515 M 931.678 1518.656 C 931.305 1519.028, 931 1520.158, 931 1521.167 C 931 1522.595, 931.773 1523, 934.500 1523 C 938.017 1523, 938.594 1522.448, 937.235 1520.385 C 936.283 1518.941, 932.553 1517.780, 931.678 1518.656 M 879.634 1519.783 C 878.813 1521.111, 884.534 1523.393, 886.649 1522.581 C 887.712 1522.173, 887.984 1521.584, 887.386 1520.986 C 885.941 1519.541, 880.323 1518.669, 879.634 1519.783 M 1279.667 1526.667 C 1279.300 1527.033, 1279 1527.933, 1279 1528.667 C 1279 1530.682, 1282.451 1530.264, 1284.500 1528 C 1286.272 1526.042, 1286.247 1526, 1283.322 1526 C 1281.678 1526, 1280.033 1526.300, 1279.667 1526.667 M 1186.500 1532.042 C 1192.550 1534.208, 1197.870 1535.862, 1198.322 1535.716 C 1198.774 1535.571, 1198.223 1534.282, 1197.098 1532.851 C 1194.701 1529.805, 1188.498 1527.977, 1180.807 1528.052 L 1175.500 1528.103 1186.500 1532.042" stroke="none" fill="#fbfafb" fill-rule="evenodd"/><path d="M 0 751.500 C 0 1352.034, 0.251 1503, 1.250 1502.998 C 1.938 1502.998, 10.150 1502.105, 19.500 1501.015 C 28.850 1499.924, 40.720 1499.025, 45.877 1499.016 C 54.295 1499.002, 55.881 1499.308, 61.377 1502.007 C 71.122 1506.792, 77.745 1507.794, 85.752 1505.694 C 91.666 1504.143, 92.487 1504.119, 93.246 1505.476 C 93.716 1506.314, 95.198 1507, 96.542 1507 C 98.382 1507, 99.418 1506.079, 100.744 1503.263 C 102.600 1499.322, 106.746 1497.163, 105.765 1500.649 C 104.363 1505.628, 104.270 1505.508, 109.428 1505.323 C 112.138 1505.225, 118.303 1504.116, 123.128 1502.857 C 131.892 1500.570, 134.319 1500.706, 132.117 1503.359 C 130.448 1505.370, 132.667 1506.003, 141.332 1505.986 C 150.501 1505.969, 153 1505.288, 153 1502.806 C 153 1501.728, 154.315 1499.531, 155.923 1497.923 C 159.536 1494.310, 161.030 1494.268, 185.432 1497.089 C 204.087 1499.246, 209.019 1499.133, 217.415 1496.356 C 222.729 1494.598, 222.380 1494.457, 225.656 1499.663 C 226.773 1501.440, 226.859 1501.437, 228.252 1499.600 C 229.118 1498.458, 232.048 1497.224, 235.596 1496.508 C 240.798 1495.458, 241.543 1495.506, 241.866 1496.908 C 242.371 1499.108, 243.968 1499.967, 247.583 1499.985 C 251.830 1500.006, 252.397 1500.949, 249.815 1503.696 C 247.754 1505.891, 247.720 1506.149, 249.291 1507.719 C 251.837 1510.266, 256.230 1508.394, 257.457 1504.239 C 258.265 1501.502, 258.887 1501, 261.470 1501 C 263.307 1501, 266.601 1502.397, 269.724 1504.500 C 272.831 1506.592, 276.144 1508, 277.961 1508 C 281.154 1508, 282.054 1506.619, 279.500 1505.638 C 277.196 1504.754, 277.721 1503, 280.289 1503 C 282.130 1503, 282.571 1503.539, 282.539 1505.750 C 282.505 1508.175, 282.832 1508.465, 285.306 1508.203 C 286.906 1508.034, 289.638 1508.849, 291.658 1510.098 C 294.590 1511.909, 295.356 1512.047, 296.085 1510.894 C 297.483 1508.685, 296.631 1507.594, 292.423 1506.201 C 288.709 1504.972, 285.102 1502.432, 286.060 1501.720 C 287.085 1500.958, 314.284 1498.058, 315.185 1498.615 C 315.729 1498.951, 315.949 1500.085, 315.675 1501.136 C 315.214 1502.899, 315.572 1502.989, 320.338 1502.313 C 329.508 1501.012, 401.602 1501.377, 411.795 1502.776 C 419.811 1503.876, 421.293 1503.850, 422.557 1502.585 C 425.704 1499.439, 437.448 1499.425, 440.053 1502.564 C 441.071 1503.791, 440.133 1504, 433.622 1504 C 429.207 1504, 426 1504.421, 426 1505 C 426 1505.550, 427.851 1506, 430.114 1506 C 432.515 1506, 435.878 1506.927, 438.191 1508.228 L 442.155 1510.455 446.327 1508.008 C 449.824 1505.957, 452.241 1505.475, 461.251 1505.030 C 471.753 1504.512, 472.003 1504.550, 472.001 1506.651 C 472.001 1508.051, 473.223 1509.524, 475.500 1510.867 C 478.036 1512.364, 479 1513.631, 479 1515.466 C 479 1520.894, 487.932 1517.700, 494.052 1510.085 C 495.858 1507.838, 498.090 1506, 499.012 1506 C 501.012 1506, 503.498 1508.630, 504.449 1511.750 C 505.385 1514.820, 506.457 1514.626, 514.516 1509.931 C 525.866 1503.317, 529.334 1498.752, 525.750 1495.140 C 523.274 1492.646, 551.546 1496.170, 561.177 1499.557 C 568.756 1502.223, 572.626 1505.440, 574.574 1510.696 C 575.553 1513.338, 576.430 1515.617, 576.521 1515.761 C 576.613 1515.904, 578.615 1515.342, 580.970 1514.511 C 586.989 1512.387, 588.732 1512.609, 590.356 1515.709 L 591.775 1518.418 593.638 1515.270 C 594.662 1513.539, 596.267 1510.745, 597.203 1509.061 C 598.708 1506.358, 599.429 1506, 603.372 1506 C 611.216 1506, 612.167 1507.131, 609.808 1513.654 C 609.153 1515.467, 608.894 1517.227, 609.233 1517.566 C 610.313 1518.646, 613.826 1516.987, 618.205 1513.328 C 623.434 1508.960, 626.502 1507.732, 630.174 1508.538 C 633.787 1509.332, 633.878 1511.169, 630.286 1510.788 C 628.357 1510.583, 627.467 1511.007, 627.212 1512.250 C 626.754 1514.485, 629.085 1514.513, 640.140 1512.407 C 651.291 1510.281, 660.135 1510.839, 663.362 1513.871 C 664.937 1515.350, 666.025 1515.768, 666.462 1515.061 C 667.353 1513.620, 674.504 1510, 676.460 1510 C 677.307 1510, 678 1510.450, 678 1511 C 678 1511.550, 677.150 1512, 676.111 1512 C 675.072 1512, 673.159 1512.885, 671.861 1513.967 L 669.500 1515.933 671.719 1515.967 C 673.273 1515.990, 673.765 1516.449, 673.362 1517.500 C 673.045 1518.325, 673.034 1519.646, 673.336 1520.434 C 673.785 1521.604, 674.448 1521.657, 676.925 1520.722 C 679.277 1519.834, 681.041 1519.878, 684.732 1520.913 C 692.563 1523.111, 693.418 1523.177, 695.369 1521.735 C 696.990 1520.536, 697.062 1520.072, 695.913 1518.232 C 694.728 1516.335, 694.873 1515.887, 697.294 1513.983 C 698.908 1512.714, 700 1510.875, 700 1509.427 C 700 1507.403, 699.507 1507, 697.035 1507 C 695.094 1507, 693.701 1507.690, 693 1509 C 691.720 1511.391, 688.460 1511.640, 687.605 1509.412 C 687.230 1508.437, 687.864 1507.118, 689.248 1505.994 C 691.287 1504.336, 693.057 1504.209, 708 1504.655 C 727.895 1505.248, 733.312 1506.178, 739.410 1510.045 C 741.973 1511.670, 744.226 1513, 744.418 1513 C 745.744 1513, 745.660 1508.281, 744.307 1506.787 C 742.292 1504.560, 743.784 1504.460, 746.862 1506.616 C 750.042 1508.844, 751.844 1507.042, 749.616 1503.862 C 745.083 1497.390, 749.911 1486.600, 757.340 1486.600 C 763.811 1486.600, 763.509 1487.667, 755.422 1493.391 C 753.106 1495.030, 752.967 1495.402, 754.376 1496.190 C 755.566 1496.857, 756 1498.561, 756 1502.574 C 756 1507.588, 756.225 1508.135, 758.671 1509.065 C 762.772 1510.624, 764.463 1509.867, 764.808 1506.316 C 765.222 1502.054, 766.428 1501.311, 773.750 1500.805 C 779.079 1500.436, 780 1500.617, 780 1502.031 C 780 1504.822, 783.377 1506.954, 789.582 1508.080 C 797.294 1509.479, 800 1511.252, 800 1514.906 C 800 1518.026, 798.224 1518.961, 792.250 1518.986 C 788.683 1519.001, 788.518 1519.230, 790.030 1522.055 C 791.304 1524.437, 796.101 1527, 799.284 1527 C 802.723 1527, 803.222 1526, 800.773 1524.018 L 798.632 1522.283 800.816 1519.507 C 802.017 1517.980, 803 1515.441, 803 1513.865 C 803 1511.399, 803.387 1511, 805.777 1511 C 808.832 1511, 811.815 1509.276, 816.735 1504.667 C 820.670 1500.981, 821.945 1501.795, 819.679 1506.546 C 816.717 1512.757, 816.987 1513, 826.863 1513 L 835.725 1513 838.924 1519.498 C 842.039 1525.824, 845.956 1529.633, 846.786 1527.143 C 847.026 1526.422, 849.910 1526, 854.594 1526 L 862.022 1526 864.719 1531.500 C 867.113 1536.380, 867.761 1537, 870.476 1537 C 872.159 1537, 875.327 1535.783, 877.517 1534.295 C 881.465 1531.612, 881.477 1531.584, 878.999 1530.895 C 877.625 1530.512, 877.065 1530.155, 877.757 1530.100 C 878.448 1530.045, 879.991 1528.875, 881.187 1527.500 C 882.382 1526.125, 883.969 1525, 884.712 1525 C 886.903 1525, 887.380 1527.923, 885.523 1529.974 C 882.894 1532.879, 884.517 1534.002, 891.309 1533.978 C 896.243 1533.961, 898.617 1533.354, 903 1530.991 C 917.067 1523.406, 920.116 1522.005, 923.861 1521.406 L 927.874 1520.765 924.937 1518.293 C 923.322 1516.934, 922 1515.467, 922 1515.032 C 922 1513.587, 927.389 1512.063, 937.954 1510.519 C 949.200 1508.876, 951.115 1507.991, 949.380 1505.241 C 948.472 1503.802, 948.864 1503.342, 951.903 1502.284 C 956.854 1500.558, 957 1500.607, 957 1504 C 957 1506.934, 955.254 1509.328, 951.412 1511.662 C 949.884 1512.590, 950.302 1512.645, 953.500 1511.935 C 955.700 1511.447, 959.542 1511.037, 962.037 1511.024 C 965.941 1511.003, 966.597 1510.703, 966.735 1508.870 C 966.925 1506.342, 970.432 1502.366, 974.200 1500.405 C 977.799 1498.532, 979.149 1498.634, 978.794 1500.750 C 978.536 1502.288, 979.289 1502.470, 985 1502.252 C 989.902 1502.065, 990.947 1502.242, 989.250 1502.970 C 986.465 1504.165, 986.363 1506.121, 989 1507.768 C 990.100 1508.455, 991 1509.662, 991 1510.449 C 991 1512.926, 993.098 1513.306, 994.637 1511.108 C 996.575 1508.341, 1003.767 1508.181, 1007.040 1510.831 L 1009.301 1512.662 1005.281 1514.271 C 1001.576 1515.753, 1000 1517.529, 1000 1520.220 C 1000 1522.266, 1017.243 1520.518, 1022.382 1517.952 C 1026.848 1515.721, 1027.063 1515.704, 1028.361 1517.480 C 1029.227 1518.663, 1031.636 1519.576, 1035.104 1520.035 C 1040.292 1520.722, 1040.615 1520.626, 1043.501 1517.521 C 1047.467 1513.254, 1050.408 1512.382, 1053.656 1514.510 C 1056.582 1516.428, 1055.833 1517.701, 1051.500 1518.173 C 1047.162 1518.646, 1047.634 1521.286, 1052.261 1522.429 C 1055.382 1523.200, 1055.915 1523.693, 1055.396 1525.328 C 1054.827 1527.121, 1055.118 1527.243, 1058.612 1526.676 C 1060.724 1526.333, 1063.589 1525.127, 1064.977 1523.997 C 1066.364 1522.867, 1069.230 1521.108, 1071.345 1520.089 C 1075.558 1518.058, 1075.348 1517.596, 1069.750 1516.586 C 1067.306 1516.145, 1066 1515.365, 1066 1514.348 C 1066 1513.401, 1066.566 1513.003, 1067.437 1513.338 C 1072.862 1515.419, 1078.213 1516.146, 1083.868 1515.569 L 1090.237 1514.920 1089.605 1517.438 C 1089.083 1519.519, 1089.391 1520.060, 1091.385 1520.560 C 1092.711 1520.893, 1094.820 1521.016, 1096.070 1520.833 C 1098.867 1520.423, 1099.905 1518, 1097.283 1518 C 1094.736 1518, 1093 1516.088, 1093 1513.281 C 1093 1511.260, 1093.353 1511.046, 1095.750 1511.614 C 1101.198 1512.906, 1105.189 1515.008, 1105.668 1516.838 C 1106.091 1518.455, 1106.710 1518.596, 1110.328 1517.895 C 1116.871 1516.628, 1120.719 1516.862, 1122.491 1518.634 C 1124.002 1520.145, 1124.236 1520.107, 1125.623 1518.128 C 1127.998 1514.737, 1132.386 1513.015, 1141.256 1511.991 C 1145.790 1511.467, 1151.412 1510.814, 1153.750 1510.539 C 1156.979 1510.158, 1158 1510.377, 1158 1511.450 C 1158 1512.226, 1159.012 1513.056, 1160.250 1513.294 C 1161.521 1513.539, 1160.733 1513.787, 1158.437 1513.864 C 1154.238 1514.005, 1150.675 1516.720, 1148.087 1521.750 C 1147.168 1523.536, 1146.074 1524, 1142.781 1524 C 1134.406 1524, 1127.445 1529.505, 1129.394 1534.585 C 1129.914 1535.938, 1130.456 1535.794, 1133.048 1533.613 C 1137.549 1529.825, 1143.114 1528.682, 1154 1529.307 C 1163.494 1529.852, 1163.499 1529.851, 1161.139 1527.926 C 1159.841 1526.867, 1158.185 1526, 1157.461 1526 C 1155.516 1526, 1153 1523.140, 1153 1520.929 C 1153 1519.416, 1153.707 1519, 1156.277 1519 C 1160.253 1519, 1163.496 1516.876, 1165.531 1512.939 L 1167.051 1510 1163.276 1509.961 L 1159.500 1509.922 1162.903 1508.445 C 1165.966 1507.115, 1166.489 1507.133, 1168.128 1508.616 C 1169.474 1509.834, 1170.967 1510.101, 1173.858 1509.639 C 1176.698 1509.185, 1178.105 1509.422, 1179.006 1510.507 C 1179.923 1511.612, 1179.940 1512, 1179.071 1512 C 1178.426 1512, 1177.250 1513.550, 1176.459 1515.445 C 1175.667 1517.340, 1174.227 1519.358, 1173.260 1519.930 C 1171.946 1520.707, 1173.274 1520.911, 1178.500 1520.735 C 1182.350 1520.606, 1186.513 1520.868, 1187.750 1521.317 C 1190.727 1522.399, 1190.637 1520.911, 1187.500 1517.182 C 1184.755 1513.920, 1184.225 1511, 1186.378 1511 C 1188.470 1511, 1190.301 1513.742, 1189.712 1515.995 C 1189.045 1518.543, 1191.590 1518.663, 1196.782 1516.328 C 1200.307 1514.743, 1200.370 1514.635, 1198 1514.243 C 1194.263 1513.627, 1193.086 1512, 1196.377 1512 C 1198.129 1512, 1200.261 1513.107, 1202.154 1515 C 1205.667 1518.513, 1207.783 1518.745, 1211.273 1516 C 1214.678 1513.322, 1217.429 1513.479, 1219.385 1516.465 C 1220.273 1517.820, 1221 1519.149, 1221 1519.418 C 1221 1520.480, 1213.175 1521.991, 1207.500 1522.025 C 1200.818 1522.065, 1201.466 1522.986, 1209.610 1525.026 L 1214.719 1526.306 1219.472 1522.677 C 1224.573 1518.782, 1230.429 1517.029, 1232.251 1518.851 C 1233.053 1519.653, 1232.897 1520.456, 1231.676 1521.805 C 1230.754 1522.824, 1230 1523.960, 1230 1524.329 C 1230 1525.370, 1237.064 1525.110, 1241.389 1523.909 C 1246.870 1522.387, 1251.784 1523.468, 1252.185 1526.283 C 1252.523 1528.663, 1259.436 1532.725, 1264 1533.226 C 1266.073 1533.453, 1266.500 1533.073, 1266.500 1531 C 1266.500 1528.899, 1265.423 1527.985, 1259.750 1525.275 C 1252.864 1521.984, 1251.638 1520.625, 1254.750 1519.730 C 1255.712 1519.453, 1257.293 1518.900, 1258.263 1518.501 C 1259.571 1517.963, 1261.055 1518.901, 1264.013 1522.138 C 1266.206 1524.536, 1268 1525.937, 1268 1525.250 C 1268 1524.435, 1269.568 1524, 1272.500 1524 C 1276.316 1524, 1277 1523.699, 1277 1522.023 C 1277 1519.715, 1273.850 1517.478, 1269.251 1516.519 C 1267.464 1516.146, 1265.413 1515.001, 1264.693 1513.973 C 1263.490 1512.254, 1263.067 1512.217, 1259.442 1513.508 C 1257.274 1514.280, 1252.673 1514.932, 1249.218 1514.956 C 1245.763 1514.980, 1241.411 1515.637, 1239.547 1516.416 C 1236.412 1517.726, 1236.021 1517.678, 1234.329 1515.771 C 1231.242 1512.292, 1224.690 1510.054, 1211.861 1508.098 C 1203.666 1506.848, 1199.435 1505.771, 1199.155 1504.862 C 1198.695 1503.369, 1187.915 1493.001, 1186.821 1493 C 1185.876 1493, 1183 1495.970, 1183 1496.946 C 1183 1497.388, 1184.379 1498.026, 1186.065 1498.363 C 1187.751 1498.700, 1190.563 1500.444, 1192.315 1502.238 L 1195.500 1505.500 1191.176 1505.811 C 1186.651 1506.137, 1184.279 1504.929, 1183.080 1501.688 C 1182.424 1499.915, 1182.210 1499.952, 1179.375 1502.338 C 1177.720 1503.731, 1175.139 1505.178, 1173.639 1505.554 C 1169.860 1506.503, 1162.562 1503.533, 1159.707 1499.885 L 1157.393 1496.928 1154.237 1500.855 C 1150.888 1505.021, 1142.820 1509.625, 1140.922 1508.452 C 1140.172 1507.988, 1140.689 1506.917, 1142.448 1505.286 C 1147.294 1500.792, 1145.284 1499.963, 1133.380 1501.548 C 1126.362 1502.482, 1125.696 1500.610, 1132.504 1499.087 C 1135.493 1498.418, 1138.965 1497.037, 1140.219 1496.020 L 1142.500 1494.169 1140 1493.636 C 1138.625 1493.344, 1134.886 1492.929, 1131.691 1492.715 C 1126.100 1492.340, 1125.825 1492.437, 1124.347 1495.295 C 1122.838 1498.214, 1122.707 1498.254, 1116.813 1497.638 C 1113.513 1497.293, 1108.831 1496.134, 1106.407 1495.062 C 1102.895 1493.508, 1102 1492.606, 1102 1490.615 C 1102 1489.242, 1102.457 1487.835, 1103.016 1487.490 C 1105.268 1486.099, 1102.552 1485, 1096.862 1485 L 1090.841 1485 1091.488 1482.052 C 1092.012 1479.670, 1091.643 1478.677, 1089.568 1476.872 C 1088.156 1475.644, 1087 1474.270, 1087 1473.820 C 1087 1472.513, 1103.384 1472.885, 1117 1474.500 C 1134.763 1476.607, 1160 1476.299, 1160 1473.975 C 1160 1472.626, 1153.619 1470.184, 1147 1469 C 1140.138 1467.773, 1134 1465.363, 1134 1463.897 C 1134 1463.416, 1137.937 1463.298, 1142.750 1463.636 C 1149.746 1464.128, 1152.302 1463.912, 1155.500 1462.558 L 1159.500 1460.865 1163.250 1465.183 C 1165.313 1467.557, 1167.485 1470.963, 1168.078 1472.750 C 1169.010 1475.561, 1169.610 1476, 1172.528 1476 C 1174.384 1476, 1178.259 1476.506, 1181.141 1477.124 L 1186.380 1478.247 1189.403 1474.479 C 1192.911 1470.106, 1200.937 1466.024, 1206.054 1466.010 C 1208.008 1466.004, 1211.954 1467.169, 1214.821 1468.598 L 1220.035 1471.196 1217.017 1474.633 C 1215.358 1476.523, 1214 1478.414, 1214 1478.835 C 1214 1480.558, 1216.598 1482, 1219.700 1482 C 1223.459 1482, 1223.906 1481.047, 1221 1479.232 C 1219.900 1478.545, 1219 1477.620, 1219 1477.177 C 1219 1475.844, 1225.871 1472.992, 1228.784 1473.116 C 1230.477 1473.188, 1230.841 1473.404, 1229.750 1473.689 C 1227.294 1474.331, 1227.569 1477.949, 1230.337 1481.408 C 1232.569 1484.198, 1232.793 1484.259, 1235.832 1482.914 C 1238.860 1481.574, 1239 1481.257, 1239 1475.756 C 1239 1470.006, 1239.003 1470, 1242.051 1470 C 1244.572 1470, 1245.347 1469.413, 1246.514 1466.621 C 1247.883 1463.345, 1249.649 1462, 1252.582 1462 C 1253.362 1462, 1254 1462.726, 1254 1463.614 C 1254 1464.501, 1255.006 1467.018, 1256.235 1469.205 C 1258.431 1473.112, 1258.437 1473.208, 1256.544 1474.591 C 1254.941 1475.763, 1254.890 1476, 1256.237 1476 C 1258.616 1476, 1261 1478.789, 1261 1481.571 C 1261 1486.262, 1266.060 1483.807, 1268.389 1477.985 L 1270.019 1473.912 1277.259 1477.706 C 1283.106 1480.770, 1284.677 1482.101, 1285.421 1484.623 L 1286.342 1487.746 1291.112 1485.350 C 1296.309 1482.739, 1302.290 1481.495, 1314.250 1480.537 C 1321.600 1479.949, 1322 1480.023, 1322 1481.968 C 1322 1483.096, 1321.100 1484.790, 1320 1485.732 C 1318.900 1486.674, 1318 1488.019, 1318 1488.722 C 1318 1490.284, 1318.258 1490.295, 1321.381 1488.872 C 1323.476 1487.917, 1324.883 1488.225, 1330.541 1490.872 C 1339.597 1495.110, 1342.973 1495.010, 1345.250 1490.434 C 1347.670 1485.571, 1347.487 1484, 1344.500 1484 C 1338.823 1484, 1335.614 1475.894, 1341 1475.159 C 1342.375 1474.971, 1344.175 1474.239, 1345 1473.532 C 1346.252 1472.458, 1347.243 1472.774, 1351 1475.445 C 1353.475 1477.205, 1356.087 1479.849, 1356.805 1481.322 C 1357.966 1483.705, 1358.681 1484.004, 1363.305 1484.040 C 1368.479 1484.080, 1368.489 1484.086, 1365.750 1485.572 C 1364.029 1486.506, 1362.998 1487.894, 1362.995 1489.282 C 1362.990 1491.370, 1362.852 1491.328, 1360.641 1488.564 L 1358.291 1485.627 1353.646 1489.434 C 1347.908 1494.136, 1347.655 1495.994, 1352.750 1496.018 C 1354.813 1496.028, 1361.225 1497.145, 1367 1498.500 C 1381.984 1502.016, 1390.376 1501.557, 1394.505 1496.994 C 1396.279 1495.034, 1396.243 1495, 1392.405 1494.992 C 1386.501 1494.981, 1376.084 1493.095, 1372.937 1491.468 C 1370.329 1490.119, 1368.182 1486.485, 1369.320 1485.346 C 1369.597 1485.070, 1373.040 1486.004, 1376.971 1487.422 C 1381.873 1489.190, 1386.151 1490, 1390.585 1490 L 1397.050 1490 1402.927 1496.006 C 1408.980 1502.192, 1411.984 1503.064, 1412.015 1498.643 C 1412.045 1494.478, 1413.342 1493.723, 1419.127 1494.501 C 1424.274 1495.193, 1427 1496.400, 1427 1497.984 C 1427 1498.390, 1425.968 1498.525, 1424.706 1498.284 C 1423.401 1498.035, 1421.439 1498.633, 1420.154 1499.673 C 1417.939 1501.464, 1418.154 1501.501, 1431.198 1501.540 C 1438.514 1501.562, 1451.700 1501.947, 1460.500 1502.395 C 1482.318 1503.507, 1485.315 1502.301, 1469.827 1498.641 C 1463.523 1497.152, 1455.500 1494.578, 1451.998 1492.921 C 1446.475 1490.310, 1445.515 1490.115, 1444.765 1491.455 C 1443.774 1493.226, 1439.776 1493.486, 1436.934 1491.965 C 1434.538 1490.682, 1434.487 1489.232, 1436.750 1486.696 C 1438.446 1484.795, 1438.423 1484.757, 1436 1485.471 C 1434.625 1485.877, 1432.503 1486.836, 1431.285 1487.604 C 1427.584 1489.937, 1422.324 1489.319, 1417.475 1485.983 C 1409.275 1480.341, 1407.753 1476, 1413.974 1476 C 1417.367 1476, 1418.173 1476.433, 1419.480 1478.962 C 1422.127 1484.081, 1426.745 1484.728, 1442.291 1482.158 C 1449.556 1480.956, 1457.575 1479.980, 1460.111 1479.987 C 1464.488 1479.999, 1464.698 1480.127, 1464.245 1482.500 L 1463.767 1485 1472.761 1485 C 1479.175 1485, 1482.083 1484.605, 1482.897 1483.624 C 1483.853 1482.473, 1485.055 1482.670, 1490.269 1484.834 C 1495.581 1487.038, 1497.901 1487.403, 1506 1487.309 C 1511.225 1487.248, 1516.625 1487.042, 1518 1486.849 C 1520.591 1486.487, 1520.987 1487.637, 1519.509 1491.236 C 1518.344 1494.075, 1523.308 1495.422, 1527.538 1493.415 C 1534.790 1489.974, 1534.321 1487.413, 1526.006 1485.050 L 1521.512 1483.774 1528.006 1481.234 C 1534.865 1478.553, 1535.133 1478.535, 1552.704 1479.563 L 1563.909 1480.218 1562.983 1477.359 C 1562.474 1475.787, 1561.811 1473.263, 1561.509 1471.750 C 1560.857 1468.471, 1558.802 1468.224, 1555.273 1471 C 1552.476 1473.200, 1549.486 1473.515, 1545.565 1472.025 C 1541.291 1470.400, 1542.460 1468.797, 1547.382 1469.535 C 1554.162 1470.551, 1554.363 1468.521, 1548.036 1462.942 C 1544.938 1460.211, 1543.014 1457.787, 1543.420 1457.129 C 1544.416 1455.518, 1545.701 1455.722, 1548.790 1457.983 C 1550.281 1459.073, 1554.989 1460.627, 1559.254 1461.435 C 1567.024 1462.908, 1572.427 1464.904, 1568.821 1464.970 C 1566.700 1465.008, 1564 1467.658, 1564 1469.701 C 1564 1470.961, 1564.878 1471.161, 1568.575 1470.744 C 1572.213 1470.334, 1573.272 1470.564, 1573.744 1471.864 C 1574.070 1472.764, 1575.612 1474.978, 1577.169 1476.785 C 1581.662 1481.998, 1581.203 1482.904, 1573.261 1484.502 C 1569.077 1485.344, 1568.250 1486.787, 1570.892 1488.637 C 1574.371 1491.073, 1573.680 1495.663, 1569.192 1499.932 L 1565.384 1503.555 1576.460 1505.778 C 1582.552 1507, 1588.315 1508, 1589.268 1508 C 1592.317 1508, 1591.124 1506.195, 1587.250 1504.947 C 1581.944 1503.238, 1580.767 1502.064, 1581.487 1499.196 C 1581.924 1497.454, 1581.508 1496.191, 1580.051 1494.833 C 1578.923 1493.782, 1578 1492.599, 1578 1492.205 C 1578 1491.308, 1585.244 1489, 1588.058 1489 C 1591.029 1489, 1590.164 1485.747, 1586.995 1484.999 C 1585.623 1484.675, 1584.500 1483.755, 1584.500 1482.955 C 1584.500 1480.666, 1588.742 1480.652, 1591.638 1482.930 C 1594.197 1484.943, 1599 1485.786, 1599 1484.223 C 1599 1483.795, 1598.299 1482.444, 1597.442 1481.221 C 1595.770 1478.834, 1596.243 1477, 1598.529 1477 C 1599.654 1477, 1600.004 1479.588, 1600.253 1489.750 C 1600.425 1496.763, 1600.663 1164.438, 1600.783 751.250 L 1601 0 800.500 0 L 0 0 0 751.500 M 0.497 752 C 0.497 1165.325, 0.611 1334.413, 0.750 1127.750 C 0.889 921.088, 0.889 582.913, 0.750 376.250 C 0.611 169.588, 0.497 338.675, 0.497 752 M 1020.500 317.054 C 1002.900 317.425, 980.737 317.790, 971.250 317.864 L 954 318 954 337.941 C 954 348.909, 954.371 358.111, 954.825 358.392 C 955.278 358.672, 963.761 359.584, 973.675 360.418 C 983.589 361.253, 992.869 362.380, 994.298 362.923 C 1000.380 365.235, 1000.242 364.038, 1001.293 423.618 C 1001.821 453.572, 1002.040 478.294, 1001.778 478.555 C 1001.517 478.817, 995.947 477.811, 989.401 476.321 C 978.950 473.941, 975.429 473.613, 960.500 473.628 C 946.849 473.642, 941.493 474.076, 933.312 475.829 C 897.417 483.522, 869.839 501.877, 850.476 530.962 C 829.834 561.969, 821.196 602.643, 826.535 643.699 C 833.961 700.810, 863.196 736.198, 911.077 746.033 C 925.191 748.932, 946.868 748.472, 957.500 745.049 C 972.593 740.190, 987.196 731.155, 1001.330 717.932 L 1009.763 710.042 1011.961 724.771 C 1013.170 732.872, 1014.305 739.985, 1014.483 740.579 C 1014.696 741.291, 1018.495 741.547, 1025.653 741.334 C 1031.619 741.156, 1053.487 740.730, 1074.250 740.388 L 1112 739.767 1112 719.852 C 1112 704.838, 1111.692 699.821, 1110.750 699.466 C 1110.063 699.206, 1102.644 698.152, 1094.265 697.122 C 1078.573 695.193, 1075.151 694.018, 1072.882 689.780 C 1071.848 687.847, 1069.554 579.201, 1065.039 318.250 C 1065.002 316.140, 1064.611 316.012, 1058.750 316.189 C 1055.313 316.293, 1038.100 316.682, 1020.500 317.054 M 667 478.627 C 634.750 482.709, 610.447 493.696, 590.970 513 C 573.467 530.348, 561.782 553.253, 555.849 581.849 C 552.976 595.696, 552.220 628.111, 554.386 644.571 C 563.486 713.726, 600.918 749.975, 666 752.656 C 694.225 753.818, 723.506 749.427, 754.500 739.383 C 772.430 733.573, 790.938 726.015, 790.476 724.692 C 790.247 724.037, 787.820 715.461, 785.083 705.637 C 782.346 695.812, 779.922 687.589, 779.696 687.363 C 779.470 687.137, 772.359 688.749, 763.893 690.945 C 706.793 705.754, 675.943 707.388, 655.500 696.686 C 642.040 689.640, 631.229 674.340, 626.556 655.724 C 623.463 643.402, 622.369 632.994, 624.170 633.016 C 626.821 633.048, 785.560 618.901, 787.750 618.438 C 789.772 618.010, 790 617.370, 790 612.126 C 790 608.917, 789.549 600.488, 788.999 593.395 C 783.495 522.508, 761.922 490.461, 712.971 480.457 C 705.657 478.963, 674.232 477.711, 667 478.627 M 464 484.007 C 448.133 488.279, 431.968 498.041, 418.476 511.497 C 414.063 515.899, 409 521.715, 407.226 524.421 C 405.452 527.128, 404 529.056, 404 528.706 C 404 528.011, 399.330 496.361, 398.510 491.500 L 398.004 488.500 384.752 488.732 C 377.463 488.859, 356.762 489.249, 338.750 489.597 L 306 490.231 306.015 509.365 C 306.024 519.889, 306.369 529.032, 306.783 529.683 C 307.219 530.368, 313.848 531.584, 322.518 532.568 C 338.993 534.439, 343.076 535.751, 345.023 539.798 C 346.004 541.839, 346.633 558.399, 347.591 607.500 C 348.288 643.250, 348.891 679.130, 348.929 687.234 C 349 701.952, 348.997 701.972, 346.239 705.058 C 343.602 708.010, 342.731 708.265, 326.739 710.774 L 310 713.400 310 733.853 L 310 754.306 338.250 753.661 C 353.788 753.306, 384.950 752.772, 407.500 752.475 C 430.050 752.178, 451.650 751.697, 455.500 751.406 L 462.500 750.878 462.170 731.193 C 461.989 720.366, 461.667 711.334, 461.455 711.122 C 461.243 710.910, 452.596 709.920, 442.239 708.921 C 431.882 707.922, 422.213 706.651, 420.752 706.096 C 415.148 703.965, 415.131 703.811, 413.926 644.834 C 413.315 614.950, 413.094 588.068, 413.435 585.095 C 415.286 568.933, 430.723 546.893, 446.052 538.527 C 450.945 535.856, 452.570 535.521, 462 535.233 C 467.775 535.056, 472.988 535.270, 473.584 535.706 C 474.181 536.143, 476.154 544.038, 477.971 553.250 L 481.273 570 493.983 570 C 500.973 570, 510.739 569.713, 515.684 569.362 L 524.676 568.724 526.088 531.249 L 527.500 493.773 522 491.004 C 510.054 484.989, 500.659 482.765, 485.500 482.361 C 473.787 482.049, 470.275 482.318, 464 484.007 M 942.500 522.645 C 931.538 524.416, 919.470 529.253, 912.219 534.782 C 901.536 542.929, 894.194 578.195, 895.310 616 C 896.339 650.858, 902.613 671.455, 916.500 685.565 C 925.869 695.083, 935.642 698.930, 950.568 698.976 C 966.802 699.025, 980.571 692.470, 995.601 677.536 L 1005.703 667.500 1005.315 650 C 1005.102 640.375, 1004.549 610.997, 1004.087 584.715 C 1003.131 530.323, 1004.090 535.288, 993.536 530.093 C 983.456 525.130, 973.276 522.930, 958.500 522.520 C 951.350 522.322, 944.150 522.378, 942.500 522.645 M 661.500 528.002 C 640.847 531.108, 631.028 539.841, 625.975 559.597 C 624.188 566.586, 620.648 588.981, 621.238 589.571 C 621.386 589.720, 644.794 587.522, 673.254 584.687 L 725 579.532 725 575.354 C 725 568.353, 722.196 556.016, 719.102 549.404 C 713.682 537.822, 704.758 530.760, 692.201 528.116 C 686.365 526.887, 669.332 526.823, 661.500 528.002 M 1201.541 611.203 C 1176.813 611.688, 1156.416 612.250, 1156.215 612.452 C 1156.013 612.654, 1156.168 620.662, 1156.560 630.249 L 1157.272 647.679 1177.386 649.405 C 1188.449 650.354, 1198.896 651.565, 1200.603 652.095 C 1205.973 653.762, 1208.114 657.043, 1209.142 665.180 C 1210.293 674.285, 1217.353 1078.877, 1216.458 1084.449 C 1215.589 1089.865, 1213.525 1092.883, 1209.556 1094.541 C 1207.747 1095.297, 1198.944 1096.854, 1189.994 1098.001 C 1174.319 1100.010, 1173.114 1100.029, 1157.205 1098.516 C 1135.381 1096.442, 1132.376 1094.912, 1130.662 1085 C 1130.329 1083.075, 1129.368 1041, 1128.526 991.500 C 1127.684 942, 1126.524 897.450, 1125.949 892.500 C 1120.918 849.251, 1097.243 822.277, 1056.064 812.876 C 1043.785 810.073, 1017.734 809.301, 1004.500 811.349 C 990.279 813.549, 978.175 817.293, 965.500 823.413 C 950.582 830.616, 938.989 839.130, 923.851 854 L 911.125 866.500 910.121 859.500 C 909.569 855.650, 908.123 845.300, 906.909 836.500 C 905.695 827.700, 904.376 820.130, 903.978 819.677 C 903.580 819.225, 881.147 819.181, 854.127 819.579 L 805 820.304 805 838.152 C 805 847.968, 805.337 856.004, 805.750 856.009 C 813.592 856.097, 849.848 860.387, 851.951 861.475 C 858.297 864.756, 858.036 861.202, 860.162 973.500 C 862.172 1079.668, 862.160 1091.749, 860.042 1096.156 C 857.828 1100.759, 853.760 1101.974, 831 1104.829 L 809.500 1107.525 790 1105.793 C 765.327 1103.600, 764.521 1103.445, 760.932 1100.196 C 758.597 1098.083, 757.748 1096.203, 757.004 1091.500 C 756.482 1088.200, 755.337 1043.875, 754.458 993 C 753.244 922.681, 752.513 898.502, 751.411 892.167 C 742.768 842.500, 695.311 814.932, 622.536 817.302 C 598.155 818.096, 580.458 821.177, 555.128 829.037 C 543.500 832.645, 514.786 843.008, 513.691 843.992 C 512.977 844.633, 518.524 920.857, 519.344 921.677 C 519.522 921.855, 528.413 921.707, 539.103 921.349 L 558.539 920.699 562.777 896.154 C 565.218 882.017, 567.539 871.285, 568.251 870.845 C 570.884 869.218, 591.484 862.826, 600.755 860.760 C 608.911 858.942, 613.680 858.585, 630 858.574 C 646.886 858.561, 650.690 858.858, 658.374 860.790 C 674.733 864.903, 687.265 873.458, 693.217 884.575 C 698.137 893.763, 698.969 899.388, 699.669 928.189 L 700.318 954.882 697.909 955.441 C 696.584 955.749, 670.525 959.827, 640 964.503 C 581.267 973.501, 573.155 975.112, 559.428 980.500 C 525.065 993.991, 505.665 1019.901, 501.926 1057.300 C 499.026 1086.311, 508.093 1114.557, 525.899 1131.980 C 544.259 1149.946, 571.988 1157.979, 601.678 1153.934 C 634.910 1149.407, 664.999 1133.465, 694.756 1104.620 C 700.397 1099.152, 705.169 1094.863, 705.361 1095.089 C 705.553 1095.315, 706.973 1106.525, 708.516 1120 C 710.059 1133.475, 711.624 1144.852, 711.993 1145.282 C 712.759 1146.174, 970.584 1141.875, 972.088 1140.946 C 972.713 1140.560, 972.821 1133.954, 972.385 1122.789 L 971.700 1105.239 959.100 1104.028 C 921.167 1100.383, 919.731 1099.987, 917.216 1092.471 C 916.262 1089.621, 915.519 1065.996, 914.331 1000.754 L 912.732 912.876 917.364 906.096 C 927.228 891.660, 941 880.045, 958.500 871.401 C 975.484 863.013, 981.847 861.637, 1004 861.567 C 1024.915 861.500, 1030.019 862.447, 1042.978 868.798 C 1056.783 875.564, 1067.631 889.352, 1071.544 905.103 C 1072.880 910.481, 1073.461 929.581, 1075.191 1025 C 1076.323 1087.425, 1077.531 1138.762, 1077.875 1139.082 C 1078.336 1139.511, 1316.557 1135.557, 1318.902 1135.082 C 1319.514 1134.958, 1318.230 1100.897, 1317.590 1100.257 C 1317.283 1099.950, 1308.593 1098.398, 1298.278 1096.808 C 1279.134 1093.858, 1276.292 1092.901, 1273.354 1088.418 C 1271.053 1084.906, 1270.334 1069.242, 1269.545 1005.500 L 1268.902 953.500 1271.071 956 C 1272.264 957.375, 1300.422 992.319, 1333.645 1033.653 C 1366.869 1074.987, 1397.156 1111.735, 1400.951 1115.315 C 1418.911 1132.257, 1435.484 1139.336, 1457 1139.255 C 1470.082 1139.206, 1477.760 1137.714, 1492.648 1132.329 L 1502.796 1128.658 1505.790 1110.079 C 1507.437 1099.861, 1508.712 1091.417, 1508.624 1091.315 C 1508.536 1091.214, 1503.297 1092.033, 1496.982 1093.136 C 1488.791 1094.566, 1483.411 1094.964, 1478.212 1094.525 C 1459.729 1092.964, 1440.924 1082.222, 1421.955 1062.389 C 1410.122 1050.016, 1326 945.428, 1326 943.088 C 1326 941.957, 1328.815 938.004, 1332.282 934.269 C 1377.867 885.153, 1385.739 877.394, 1401.814 865.740 C 1410.196 859.664, 1424.649 852.479, 1432.460 850.506 C 1435.738 849.678, 1442.349 849, 1447.151 849 C 1451.953 849, 1456.113 848.625, 1456.396 848.168 C 1456.679 847.710, 1456.633 838.643, 1456.294 828.019 L 1455.678 808.702 1435.089 809.295 C 1406.643 810.114, 1398.097 812.453, 1383.059 823.532 C 1373.282 830.735, 1370.377 833.638, 1317.741 888.812 C 1290.818 917.033, 1268.667 939.983, 1268.516 939.812 C 1268.365 939.640, 1267.024 866.375, 1265.536 777 C 1264.048 687.625, 1262.635 613.487, 1262.396 612.250 C 1261.987 610.131, 1261.513 610.009, 1254.231 610.161 C 1249.979 610.249, 1226.268 610.718, 1201.541 611.203 M 200.500 629.114 C 182.900 629.452, 158.938 629.790, 147.250 629.864 L 126 630 126 647.441 C 126 657.034, 126.394 665.126, 126.876 665.423 C 127.358 665.721, 137.242 666.853, 148.841 667.939 C 176.578 670.535, 178.332 671.477, 180.013 684.686 C 180.490 688.434, 182.526 789.825, 184.537 910 C 186.548 1030.175, 188.560 1129.447, 189.009 1130.604 C 190.780 1135.175, 230.246 1149.831, 253.167 1154.429 C 274.871 1158.784, 282.446 1159.490, 306.500 1159.399 C 325.503 1159.328, 331.573 1158.936, 341.431 1157.143 C 390.879 1148.147, 427.561 1120.828, 448.916 1077.091 C 458.499 1057.463, 465.642 1030.797, 468.093 1005.500 C 469.792 987.969, 468.762 955.713, 466.001 940 C 453.633 869.611, 409.811 825.347, 349.500 822.326 C 310.075 820.351, 272.978 834.344, 245.358 861.608 L 238.114 868.759 237.599 863.629 C 237.315 860.808, 236.346 810.125, 235.444 751 C 234.542 691.875, 233.511 640.125, 233.152 636 L 232.500 628.500 200.500 629.114 M 309.061 868.024 C 284.173 871.488, 255.151 889.561, 241.224 910.270 L 238.379 914.500 239.939 1001.778 L 241.500 1089.056 248 1093.650 C 257.515 1100.374, 273.426 1107.716, 284.663 1110.567 C 320.623 1119.692, 365.142 1113.265, 384.110 1096.212 C 393.405 1087.854, 402.777 1065.035, 406.989 1040.500 C 412.758 1006.899, 412.218 966.787, 405.650 941 C 395.848 902.517, 374.214 878.110, 342.776 870.070 C 333.593 867.722, 318.023 866.777, 309.061 868.024 M 651 1001.014 C 624.875 1005.864, 600.806 1010.577, 597.513 1011.486 C 577.788 1016.935, 562.966 1031.802, 558.959 1050.156 C 556.977 1059.233, 558.107 1074.369, 561.284 1081.310 C 566.559 1092.831, 578.627 1102.160, 591.799 1104.898 C 601.271 1106.868, 614.787 1106.287, 624.415 1103.497 C 644.850 1097.575, 669.289 1081.660, 696.790 1056.366 L 702.080 1051.500 701.379 1021.750 C 700.897 1001.292, 700.338 992.031, 699.589 992.098 C 698.990 992.152, 677.125 996.164, 651 1001.014 M 1591 1392.500 C 1588.780 1394.863, 1588.760 1395, 1590.626 1395 C 1592.884 1395, 1595 1393.210, 1595 1391.300 C 1595 1389.316, 1593.595 1389.738, 1591 1392.500 M 1279 1413.821 C 1279 1414.885, 1277.987 1416.437, 1276.750 1417.269 C 1275.513 1418.101, 1274.818 1419.112, 1275.208 1419.515 C 1275.597 1419.919, 1277.319 1419.068, 1279.034 1417.624 C 1280.887 1416.065, 1283.374 1415, 1285.160 1415 C 1289.799 1415, 1288.067 1412.553, 1283.172 1412.193 C 1279.607 1411.930, 1279 1412.167, 1279 1413.821 M 1387.458 1420.067 C 1387.095 1420.656, 1387.746 1421.382, 1388.910 1421.687 C 1390.072 1421.991, 1391.290 1423.306, 1391.617 1424.609 C 1392.577 1428.436, 1402.671 1430.491, 1403.804 1427.091 C 1404.131 1426.107, 1403.762 1425.878, 1402.581 1426.331 C 1400.302 1427.205, 1395.050 1424.854, 1392.076 1421.629 C 1389.432 1418.762, 1388.467 1418.436, 1387.458 1420.067 M 1404.500 1419.837 C 1400.210 1420.813, 1401.163 1422.388, 1406.519 1423.175 C 1411.044 1423.840, 1414 1425.400, 1414 1427.122 C 1414 1427.605, 1413.100 1428, 1412 1428 C 1409.891 1428, 1409.309 1429.455, 1411 1430.500 C 1411.550 1430.840, 1412 1432.166, 1412 1433.448 C 1412 1435.317, 1412.689 1435.907, 1415.485 1436.431 C 1418.868 1437.066, 1425.099 1435.905, 1427.857 1434.125 C 1430.473 1432.437, 1426.981 1431.745, 1422.366 1433.037 C 1415.971 1434.828, 1414.721 1433.220, 1418.851 1428.517 C 1422.352 1424.529, 1422.907 1421.398, 1420.250 1420.627 C 1416.832 1419.635, 1407.455 1419.164, 1404.500 1419.837 M 1440.574 1419.674 C 1435.593 1419.980, 1433.285 1420.577, 1432.356 1421.800 C 1430.284 1424.526, 1430.742 1429.588, 1433.331 1432.599 L 1435.663 1435.309 1438.932 1432.905 C 1442.043 1430.616, 1442.875 1430.507, 1456.101 1430.651 C 1467.148 1430.771, 1470 1430.526, 1470 1429.458 C 1470 1428.718, 1470.968 1427.435, 1472.152 1426.606 C 1474.037 1425.286, 1474.560 1425.279, 1476.374 1426.550 C 1477.782 1427.535, 1481.117 1428, 1486.788 1428 C 1494.765 1428, 1499 1429.030, 1499 1430.969 C 1499 1431.463, 1497.763 1432.010, 1496.250 1432.184 C 1492.482 1432.617, 1492.769 1434.928, 1496.941 1437.739 C 1500.943 1440.436, 1504.357 1441.461, 1506.543 1440.622 C 1507.854 1440.119, 1507.701 1439.454, 1505.548 1436.285 C 1503.144 1432.748, 1503.107 1432.504, 1504.877 1431.850 C 1505.907 1431.469, 1507.233 1429.772, 1507.823 1428.079 C 1509.046 1424.569, 1509.257 1424.489, 1512.285 1426.392 C 1513.503 1427.157, 1516.696 1428.093, 1519.380 1428.472 C 1525.433 1429.327, 1528.254 1430.575, 1529.827 1433.094 C 1531.521 1435.807, 1529.063 1436.635, 1523.904 1435.089 C 1519.758 1433.847, 1518 1434.246, 1518 1436.429 C 1518 1438.191, 1525.659 1438.991, 1531.729 1437.863 C 1534.353 1437.375, 1538.636 1435.651, 1541.246 1434.032 L 1545.991 1431.088 1551.246 1433.534 C 1554.136 1434.880, 1557.900 1435.985, 1559.611 1435.990 L 1562.722 1436 1561.654 1432 C 1560.644 1428.212, 1560.383 1428, 1556.744 1428 C 1554.630 1428, 1551.487 1427.269, 1549.759 1426.375 C 1543.379 1423.076, 1541.188 1422.921, 1538.336 1425.565 C 1536.890 1426.904, 1535.555 1428, 1535.369 1428 C 1535.183 1428, 1531.231 1426.899, 1526.587 1425.553 C 1511.919 1421.303, 1499.439 1419.923, 1472.500 1419.573 C 1458.750 1419.395, 1444.383 1419.440, 1440.574 1419.674 M 1563.973 1420.733 L 1561.500 1422.465 1565 1423.145 C 1566.925 1423.520, 1569.513 1424.142, 1570.750 1424.529 C 1574.168 1425.599, 1573.870 1421.281, 1570.435 1419.975 C 1567.053 1418.690, 1566.855 1418.713, 1563.973 1420.733 M 1371 1422.810 C 1371 1423.373, 1371.515 1424.005, 1372.143 1424.214 C 1372.995 1424.498, 1372.986 1425.157, 1372.108 1426.798 C 1371.047 1428.781, 1371.167 1429, 1373.310 1429 C 1375.399 1429, 1379 1426.334, 1379 1424.788 C 1379 1424.483, 1377.987 1424.014, 1376.750 1423.745 C 1375.513 1423.477, 1373.713 1422.926, 1372.750 1422.522 C 1371.744 1422.099, 1371 1422.221, 1371 1422.810 M 1354.200 1425.200 C 1353.540 1425.860, 1353 1426.985, 1353 1427.700 C 1353 1429.807, 1355.359 1429.131, 1357.297 1426.469 C 1359.031 1424.086, 1359.029 1424, 1357.247 1424 C 1356.231 1424, 1354.860 1424.540, 1354.200 1425.200 M 1574.250 1430.347 C 1571.613 1431.212, 1571 1431.941, 1571 1434.207 C 1571 1436.534, 1571.425 1437, 1573.550 1437 C 1574.952 1437, 1577.389 1436.333, 1578.964 1435.518 C 1581.565 1434.174, 1581.722 1433.805, 1580.665 1431.526 C 1579.403 1428.807, 1579.110 1428.753, 1574.250 1430.347 M 526.818 1441.500 C 530.057 1444.226, 533 1444.778, 533 1442.661 C 533 1441.122, 528.870 1439, 525.876 1439 C 524.088 1439, 524.200 1439.297, 526.818 1441.500 M 1557 1447 C 1556.158 1448.574, 1556.240 1449, 1557.383 1449 C 1559.929 1449, 1562 1447.831, 1562 1446.393 C 1562 1444.272, 1558.214 1444.732, 1557 1447 M 807 1449.418 C 807 1450.748, 806.727 1452.548, 806.393 1453.418 C 805.888 1454.733, 806.647 1455, 810.893 1455 C 815.642 1455, 816 1454.829, 816 1452.557 C 816 1449.757, 812.665 1447, 809.277 1447 C 807.535 1447, 807 1447.568, 807 1449.418 M 1569 1456.378 C 1569 1458.590, 1571.925 1460.400, 1575.500 1460.400 C 1579.075 1460.400, 1582 1458.590, 1582 1456.378 C 1582 1455.349, 1580.354 1455, 1575.500 1455 C 1570.646 1455, 1569 1455.349, 1569 1456.378 M 945.435 1459.596 C 946.274 1462.940, 944.537 1465, 940.878 1465 C 936.917 1465, 937.274 1466.491, 941.982 1469.607 C 946.319 1472.477, 956.612 1474.420, 954.250 1471.922 C 951.918 1469.455, 952.987 1468.855, 958.750 1469.394 C 964.412 1469.924, 964.434 1469.916, 960.159 1468.889 C 956.868 1468.099, 955.418 1467.095, 954.159 1464.736 C 950.425 1457.737, 944.021 1453.964, 945.435 1459.596 M 1071.473 1458.916 C 1071.808 1459.970, 1071.613 1461.121, 1071.041 1461.475 C 1068.947 1462.769, 1070.086 1464, 1073.378 1464 C 1078.458 1464, 1079.637 1461.847, 1076.020 1459.173 C 1072.373 1456.477, 1070.669 1456.380, 1071.473 1458.916 M 1033.431 1461.218 C 1032.651 1463.674, 1028.138 1465.561, 1020.991 1466.421 C 1014.041 1467.257, 1012.318 1468.189, 1014.453 1469.961 C 1015.304 1470.667, 1016 1471.842, 1016 1472.572 C 1016 1473.602, 1018.332 1473.854, 1026.443 1473.699 L 1036.886 1473.500 1038.362 1469.750 C 1039.537 1466.767, 1040.367 1466, 1042.420 1466 C 1047.386 1466, 1045.073 1463.049, 1038.269 1460.705 C 1034.286 1459.333, 1034.020 1459.361, 1033.431 1461.218 M 1522.604 1461.589 C 1521.582 1464.252, 1524.774 1465.791, 1528.418 1464.393 C 1530.291 1463.674, 1530.551 1461.006, 1528.750 1460.986 C 1528.063 1460.979, 1526.550 1460.718, 1525.388 1460.406 C 1523.942 1460.018, 1523.064 1460.391, 1522.604 1461.589 M 893.365 1466.563 C 889.039 1469.573, 885.545 1472.479, 885.600 1473.018 C 885.655 1473.558, 885.768 1475.115, 885.850 1476.479 C 885.987 1478.737, 886.218 1478.858, 888.462 1477.835 C 889.816 1477.219, 892.065 1474.989, 893.460 1472.881 C 897.209 1467.216, 900.215 1465.531, 904.132 1466.896 C 908.258 1468.334, 908.191 1468.354, 907.820 1465.818 C 907.622 1464.472, 906.300 1463.149, 904.365 1462.362 C 901.354 1461.138, 900.920 1461.304, 893.365 1466.563 M 1535 1465 C 1535 1466.619, 1535.667 1467, 1538.500 1467 C 1542.164 1467, 1542.812 1466.212, 1540.800 1464.200 C 1538.788 1462.188, 1535 1462.710, 1535 1465 M 988.943 1465.056 C 988.150 1465.558, 985.573 1465.976, 983.218 1465.985 C 978.433 1466.002, 972 1468.307, 972 1470.004 C 972 1471.440, 980.913 1475.494, 988.264 1477.402 C 991.435 1478.225, 997.847 1479.208, 1002.514 1479.587 C 1010.006 1480.194, 1011 1480.082, 1011 1478.628 C 1011 1476.021, 1007.577 1473.697, 999.769 1471 C 994.906 1469.320, 992.179 1467.785, 991.459 1466.321 C 990.685 1464.748, 989.986 1464.397, 988.943 1465.056 M 1594 1471.173 C 1594 1472.178, 1594.638 1473, 1595.418 1473 C 1596.198 1473, 1597.548 1473.273, 1598.418 1473.607 C 1599.535 1474.035, 1600 1473.627, 1600 1472.220 C 1600 1470.770, 1599.183 1470.107, 1597 1469.787 C 1594.601 1469.435, 1594 1469.712, 1594 1471.173 M 1049.500 1471.843 C 1047.175 1472.410, 1046.554 1473.072, 1046.738 1474.787 C 1046.967 1476.915, 1046.620 1477.008, 1037.738 1477.220 C 1032.657 1477.341, 1026.784 1477.412, 1024.687 1477.379 C 1021.007 1477.320, 1020.937 1477.381, 1022.687 1479.124 C 1023.684 1480.117, 1027.664 1481.960, 1031.530 1483.218 L 1038.560 1485.506 1040.739 1483.003 L 1042.918 1480.500 1045.209 1483.164 C 1049.198 1487.804, 1053.668 1489.417, 1062.500 1489.406 C 1071.414 1489.394, 1078.932 1486.830, 1083.118 1482.374 C 1086.350 1478.934, 1084.856 1477.012, 1076.837 1474.298 C 1069.892 1471.948, 1054.675 1470.581, 1049.500 1471.843 M 1300.250 1472.031 C 1295.446 1473.962, 1297.931 1475.111, 1306.250 1474.804 C 1314.015 1474.518, 1314.483 1474.618, 1314.208 1476.500 C 1314.026 1477.752, 1314.217 1478.062, 1314.718 1477.329 C 1315.159 1476.685, 1316.786 1475.841, 1318.333 1475.452 C 1322.024 1474.526, 1320.717 1473.468, 1314.201 1472.107 C 1307.961 1470.804, 1303.366 1470.779, 1300.250 1472.031 M 1393.143 1474.890 C 1390.995 1476.252, 1392.705 1479.632, 1396.438 1481.404 C 1402.755 1484.401, 1404.535 1483.353, 1402.789 1477.665 C 1401.766 1474.332, 1401.340 1474.001, 1398.082 1474.015 C 1396.112 1474.024, 1393.889 1474.418, 1393.143 1474.890 M 1517.667 1475.667 C 1515.886 1477.447, 1517.206 1479, 1520.500 1479 C 1524.353 1479, 1525.070 1477.643, 1522.066 1476.035 C 1519.822 1474.834, 1518.601 1474.732, 1517.667 1475.667 M 1511 1481.300 C 1511 1484.670, 1515.772 1486.184, 1517.986 1483.517 C 1519.008 1482.286, 1518.762 1481.860, 1516.544 1481.017 C 1512.923 1479.640, 1511 1479.738, 1511 1481.300 M 538.500 1483 C 538.160 1483.550, 538.359 1484, 538.941 1484 C 540.926 1484, 540.007 1486.766, 537.468 1488.429 C 536.076 1489.341, 535.202 1490.518, 535.527 1491.044 C 536.397 1492.451, 542.335 1492.207, 544.426 1490.678 C 546.140 1489.425, 546.097 1489.208, 543.617 1486.532 C 542.178 1484.979, 541 1483.324, 541 1482.854 C 541 1481.677, 539.255 1481.779, 538.500 1483 M 1270.694 1482.639 C 1269.484 1483.850, 1271.124 1485, 1274.059 1485 C 1275.975 1485, 1277 1485.510, 1277 1486.465 C 1277 1487.745, 1279.829 1490, 1281.434 1490 C 1282.814 1490, 1281.813 1485.813, 1280 1484 C 1278.081 1482.081, 1272.123 1481.210, 1270.694 1482.639 M 1379 1482.635 C 1379 1483.612, 1383.976 1488, 1385.083 1488 C 1387.055 1488, 1387.330 1484.715, 1385.471 1483.355 C 1383.592 1481.981, 1379 1481.470, 1379 1482.635 M 1548.048 1485.449 C 1545.905 1487.730, 1545.755 1491, 1547.794 1491 C 1549.528 1491, 1553.243 1486.075, 1552.658 1484.551 C 1551.829 1482.391, 1550.717 1482.608, 1548.048 1485.449 M 124.998 1489.996 C 126.371 1492.561, 126.554 1492.322, 121.500 1494.567 C 117.879 1496.176, 117.727 1496.383, 119.893 1496.760 C 125.038 1497.655, 130.755 1489.154, 125.667 1488.174 C 124.074 1487.868, 123.987 1488.106, 124.998 1489.996 M 550.232 1490 C 549.112 1491.794, 549.233 1492, 551.410 1492 C 555.481 1492, 557.230 1490.982, 555.903 1489.383 C 554.256 1487.399, 551.682 1487.679, 550.232 1490 M 736.250 1490.175 C 732.105 1492.738, 731.987 1495, 736 1495 C 738.303 1495, 739 1494.549, 739 1493.059 C 739 1491.991, 739.450 1490.840, 740 1490.500 C 741.164 1489.781, 741.352 1487.961, 740.250 1488.083 C 739.837 1488.128, 738.038 1489.070, 736.250 1490.175 M 1146 1488.949 C 1146 1489.599, 1146.466 1491.002, 1147.035 1492.066 C 1148.377 1494.572, 1154.599 1494.677, 1158.027 1492.250 L 1160.500 1490.500 1156 1489.822 C 1153.525 1489.450, 1150.263 1488.835, 1148.750 1488.456 C 1146.912 1487.995, 1146 1488.159, 1146 1488.949 M 1104.422 1490.343 C 1104.092 1491.202, 1104.114 1492.376, 1104.470 1492.952 C 1105.447 1494.533, 1110.582 1494.209, 1112.020 1492.476 C 1113.605 1490.566, 1113.359 1490.339, 1108.761 1489.480 C 1105.847 1488.936, 1104.889 1489.126, 1104.422 1490.343 M 1563.112 1490.265 C 1561.799 1490.944, 1560.771 1491.725, 1560.827 1492 C 1561.461 1495.089, 1563.440 1499.020, 1564.228 1498.757 C 1564.779 1498.574, 1566.034 1496.303, 1567.018 1493.712 C 1568.661 1489.384, 1568.672 1489.001, 1567.153 1489.015 C 1566.244 1489.023, 1564.425 1489.585, 1563.112 1490.265 M 779.079 1492.265 C 775.009 1494.341, 775.349 1496, 779.845 1496 C 783.632 1496, 787 1494.084, 787 1491.929 C 787 1490.596, 781.928 1490.811, 779.079 1492.265 M 1535.651 1491.755 C 1535.395 1492.170, 1535.989 1493.503, 1536.972 1494.718 C 1538.546 1496.660, 1539.073 1496.780, 1541.372 1495.713 C 1542.809 1495.046, 1543.988 1494.178, 1543.992 1493.785 C 1544.014 1491.825, 1536.707 1490.047, 1535.651 1491.755 M 1549.098 1494.149 C 1547.243 1499.469, 1547.695 1500.975, 1551.642 1502.624 C 1555.313 1504.158, 1560 1503.797, 1560 1501.981 C 1560 1501.441, 1558.884 1501, 1557.519 1501 C 1555.622 1501, 1554.900 1500.353, 1554.450 1498.250 C 1553.555 1494.065, 1552.147 1491, 1551.119 1491 C 1550.611 1491, 1549.702 1492.417, 1549.098 1494.149 M 569 1493.300 C 569 1496.484, 573.467 1498.133, 575.793 1495.807 C 576.717 1494.883, 576.286 1494.319, 573.878 1493.307 C 569.974 1491.665, 569 1491.664, 569 1493.300 M 597.446 1493.087 C 596.609 1494.442, 597.593 1495.321, 601.806 1496.984 C 604.399 1498.008, 605.369 1498.027, 606.306 1497.073 C 607.235 1496.128, 606.975 1495.429, 605.139 1493.929 C 602.554 1491.816, 598.505 1491.373, 597.446 1493.087 M 133.188 1494.739 C 133.561 1496.675, 136.225 1497.516, 138.808 1496.512 C 140.258 1495.949, 140.142 1495.656, 138 1494.463 C 134.580 1492.559, 132.788 1492.661, 133.188 1494.739 M 1082.022 1494.474 C 1080.240 1496.621, 1074.851 1497.342, 1069.326 1496.173 L 1064.500 1495.152 1067 1497.201 C 1069.237 1499.034, 1070.398 1499.186, 1078.025 1498.652 C 1084.448 1498.201, 1087.236 1498.410, 1089.333 1499.498 C 1092.016 1500.890, 1092.092 1500.862, 1091.440 1498.721 C 1089.856 1493.522, 1084.731 1491.210, 1082.022 1494.474 M 482 1494.941 C 482 1495.459, 482.450 1496.160, 483 1496.500 C 484.756 1497.585, 484.090 1498.749, 480.500 1500.867 C 477.964 1502.364, 477 1503.631, 477 1505.466 C 477 1508.406, 477.526 1508.514, 482.251 1506.540 C 484.173 1505.736, 486.028 1505.361, 486.373 1505.706 C 486.718 1506.051, 487 1504.831, 487 1502.995 C 487 1501.160, 487.734 1498.846, 488.632 1497.854 C 490.160 1496.166, 490.092 1495.985, 487.567 1495.025 C 484.202 1493.746, 482 1493.713, 482 1494.941 M 373.244 1496.250 C 373.724 1497.713, 380 1498.577, 380 1497.180 C 380 1496.245, 376.756 1495.040, 374.167 1495.014 C 373.433 1495.006, 373.018 1495.563, 373.244 1496.250 M 684 1498 C 681.115 1500.885, 681.434 1503.005, 684.750 1502.978 C 687.480 1502.956, 690.364 1501.109, 692.916 1497.750 C 694.130 1496.151, 693.888 1496, 690.122 1496 C 687.333 1496, 685.353 1496.647, 684 1498 M 1485.554 1498.337 C 1484.548 1499.073, 1483.899 1500.150, 1484.112 1500.730 C 1484.622 1502.118, 1491.190 1499.988, 1491.758 1498.250 C 1492.310 1496.561, 1487.897 1496.624, 1485.554 1498.337 M 587.713 1498.621 C 586.039 1500.294, 587.263 1501.998, 590.925 1503.096 C 595.837 1504.567, 598.245 1503.750, 597.820 1500.754 C 597.549 1498.847, 596.801 1498.454, 592.963 1498.204 C 590.467 1498.041, 588.105 1498.229, 587.713 1498.621 M 1512.493 1500.011 C 1510.556 1503.146, 1517.972 1507.457, 1520.666 1504.762 C 1521.805 1503.624, 1521.309 1503.063, 1517.549 1501.236 C 1514.988 1499.992, 1512.828 1499.469, 1512.493 1500.011 M 1540.174 1501.314 C 1537.287 1504.388, 1537.322 1506.336, 1540.250 1505.466 C 1543.095 1504.621, 1545.024 1502.225, 1544.324 1500.403 C 1543.574 1498.446, 1542.685 1498.642, 1540.174 1501.314 M 579.250 1501.496 C 577.529 1503.451, 577.684 1505.040, 579.750 1506.608 C 582.421 1508.636, 584.523 1508.259, 586.006 1505.488 C 587.198 1503.261, 587.133 1502.812, 585.425 1501.520 C 582.997 1499.683, 580.853 1499.675, 579.250 1501.496 M 510.233 1503.964 C 507.667 1505.223, 507.227 1505.827, 508.183 1506.783 C 510.312 1508.912, 512.731 1508.186, 513.295 1505.250 C 513.586 1503.737, 513.751 1502.469, 513.662 1502.431 C 513.573 1502.393, 512.030 1503.083, 510.233 1503.964 M 641.060 1503.752 C 634.494 1507.088, 635.920 1508.001, 647.667 1507.985 C 653.625 1507.976, 659.175 1507.533, 660 1507 C 661.213 1506.216, 661.069 1506.028, 659.250 1506.015 C 658.013 1506.007, 656.100 1505.100, 655 1504 C 652.456 1501.456, 645.811 1501.337, 641.060 1503.752 M 533 1507.200 C 533 1509.689, 533.267 1510.133, 534.200 1509.200 C 535.707 1507.693, 540.044 1507.674, 547.357 1509.143 C 550.487 1509.771, 553.199 1510.109, 553.383 1509.893 C 553.568 1509.677, 554.016 1508.263, 554.378 1506.750 L 555.038 1504 544.019 1504 L 533 1504 533 1507.200 M 335.452 1507.406 C 332.490 1508.696, 328.326 1513.659, 329.349 1514.682 C 329.628 1514.962, 331.234 1514.888, 332.916 1514.518 C 336.036 1513.833, 340 1509.830, 340 1507.365 C 340 1505.698, 339.359 1505.704, 335.452 1507.406 M 564.667 1507.667 C 563.412 1508.921, 563.998 1513.785, 565.471 1514.351 C 566.762 1514.846, 570 1512.709, 570 1511.363 C 570 1508.532, 566.339 1505.995, 564.667 1507.667 M 875.283 1510.515 C 874.201 1511.272, 871.108 1512.431, 868.408 1513.090 C 862.510 1514.530, 860.216 1515.598, 857.281 1518.270 C 852.304 1522.801, 859.356 1523.428, 866.234 1519.066 C 871.363 1515.814, 877.387 1513.827, 879.575 1514.667 C 881.740 1515.498, 881.347 1511.698, 879.124 1510.310 C 877.659 1509.394, 876.818 1509.439, 875.283 1510.515 M 931.678 1518.656 C 931.305 1519.028, 931 1520.158, 931 1521.167 C 931 1522.595, 931.773 1523, 934.500 1523 C 938.017 1523, 938.594 1522.448, 937.235 1520.385 C 936.283 1518.941, 932.553 1517.780, 931.678 1518.656 M 879.634 1519.783 C 878.813 1521.111, 884.534 1523.393, 886.649 1522.581 C 887.712 1522.173, 887.984 1521.584, 887.386 1520.986 C 885.941 1519.541, 880.323 1518.669, 879.634 1519.783 M 1279.667 1526.667 C 1279.300 1527.033, 1279 1527.933, 1279 1528.667 C 1279 1530.682, 1282.451 1530.264, 1284.500 1528 C 1286.272 1526.042, 1286.247 1526, 1283.322 1526 C 1281.678 1526, 1280.033 1526.300, 1279.667 1526.667 M 1186.500 1532.042 C 1192.550 1534.208, 1197.870 1535.862, 1198.322 1535.716 C 1198.774 1535.571, 1198.223 1534.282, 1197.098 1532.851 C 1194.701 1529.805, 1188.498 1527.977, 1180.807 1528.052 L 1175.500 1528.103 1186.500 1532.042" stroke="none" fill="#d42434" fill-rule="evenodd"/></svg>